<?xml version="1.0" standalone="no"?>
<!DOCTYPE svg PUBLIC "-//W3C//DTD SVG 1.1//EN" "http://www.w3.org/Graphics/SVG/1.1/DTD/svg11.dtd" >
<svg xmlns="http://www.w3.org/2000/svg">
<metadata>Generated by IcoMoon</metadata>
<defs>
<font id="icomoon" horiz-adv-x="1024">
<font-face units-per-em="1024" ascent="960" descent="-64" />
<missing-glyph horiz-adv-x="1024" />
<glyph unicode="&#x20;" horiz-adv-x="512" d="" />
<glyph unicode="&#xe900;" glyph-name="facebook" d="M408.351-64.266l1.249 471.306h-163.84v184.32h163.84l-1.249 127.816c0 155.648 90.767 240.456 223.232 240.456 1.381 0.006 3.016 0.009 4.651 0.009 45.57 0 90.537-2.577 134.765-7.595l-5.416 0.499v-162.816h-92.16c-71.885 0-85.873-36.229-85.873-88.986l6.369-109.384h163.84v-184.32h-163.84v-471.040z" />
<glyph unicode="&#xe901;" glyph-name="google-plus" d="M325.837 494.981v-107.54h184.934c-7.373-46.203-55.89-135.291-184.75-135.291-0.865-0.014-1.886-0.021-2.909-0.021-109.375 0-198.042 88.666-198.042 198.042s88.666 198.042 198.042 198.042c0.98 0 1.957-0.007 2.934-0.021l-0.148 0.002c1.281 0.032 2.79 0.049 4.303 0.049 48.414 0 92.534-18.388 125.756-48.561l-0.154 0.138 88.433 81.92c-56.244 50.844-131.166 81.957-213.356 81.957-1.708 0-3.413-0.013-5.115-0.040l0.257 0.003c-180.224 0-325.878-140.349-325.878-313.344s145.613-313.61 325.693-313.61c188.129 0 312.771 127.201 312.771 306.36-0.063 18.412-1.924 36.35-5.416 53.699l0.296-1.761h-307.651zM1024 488.96h-102.4v102.4h-81.92v-102.4h-102.4v-81.92l100.495-1.618 1.905-100.782h81.92v102.4l102.4-1.618z" />
<glyph unicode="&#xe902;" glyph-name="password-hide-show" d="M960.717 430.858c-2.048 3.953-187.74 245.371-448.512 245.371s-446.669-241.398-448.717-245.371l-63.181 49.48c7.885 9.892 211.436 275.046 511.816 275.046s503.91-265.155 511.877-275.046zM735.437 341.811c-0.163 122.112-99.192 221.041-221.327 221.041-122.236 0-221.327-99.092-221.327-221.327 0-122.214 99.056-221.292 221.262-221.327h0.004c121.829 1.284 220.232 99.767 221.388 221.504l0.001 0.11zM656.384 341.811c-0.117-78.488-63.77-142.070-142.274-142.070-78.576 0-142.275 63.698-142.275 142.275 0 78.554 63.663 142.239 142.21 142.275h0.003c78.497-0.405 142.012-63.971 142.336-142.448v-0.031z" />
<glyph unicode="&#xe903;" glyph-name="slider-left" d="M337.326 448.328l411.832 462.725c4.707 5.469 7.573 12.64 7.573 20.48s-2.866 15.011-7.608 20.521l0.035-0.041c-4.392 5.231-10.934 8.533-18.248 8.533s-13.856-3.302-18.218-8.497l-0.030-0.037-430.182-483.328c-4.707-5.469-7.573-12.64-7.573-20.48s2.866-15.011 7.608-20.521l-0.035 0.041 430.223-483.144c4.428-5.147 10.899-8.429 18.14-8.581h0.026c7.28 0.060 13.775 3.368 18.115 8.544l0.030 0.037c4.707 5.469 7.573 12.64 7.573 20.48s-2.866 15.011-7.608 20.521l0.035-0.041z" />
<glyph unicode="&#xe904;" glyph-name="slider-right" d="M683.561 447.488l-410.419 461.967c-4.707 5.469-7.573 12.64-7.573 20.48s2.866 15.011 7.608 20.521l-0.035-0.041c4.373 5.221 10.895 8.517 18.186 8.517s13.813-3.296 18.156-8.48l0.030-0.037 428.708-482.57c4.707-5.469 7.573-12.64 7.573-20.48s-2.866-15.011-7.608-20.521l0.035 0.041-428.708-482.304c-4.411-5.127-10.848-8.405-18.054-8.581l-0.030-0.001c-7.26 0.064-13.734 3.373-18.053 8.543l-0.031 0.038c-4.711 5.468-7.58 12.639-7.58 20.48s2.869 15.012 7.614 20.521l-0.035-0.041z" />
<glyph unicode="&#xe905;" glyph-name="ad-campaign" d="M795.259 699.003l-94.843 92.631c10.417 6.504 23.068 10.36 36.619 10.36 18.904 0 36.055-7.504 48.637-19.696l-0.018 0.018c12.439-12.024 20.163-28.859 20.163-47.498 0-13.31-3.938-25.699-10.713-36.068l0.155 0.253zM967.291 485.274c0.001-0.056 0.002-0.122 0.002-0.189 0-2.272-0.925-4.328-2.418-5.812v0l-10.363-10.117c-1.589-1.466-3.72-2.366-6.062-2.366s-4.473 0.899-6.068 2.371l0.006-0.006-477.041 466.268c-1.574 1.522-2.552 3.652-2.552 6.011s0.977 4.489 2.549 6.009l10.345 9.956c1.525 1.572 3.643 2.559 5.993 2.601h0.008c2.391-0.025 4.553-0.98 6.146-2.521l-0.002 0.002 477.082-466.35c1.492-1.462 2.417-3.498 2.417-5.75 0-0.030 0-0.061-0.001-0.091v0.005zM894.362 474.194c-72.078-8.695-137.702-26.313-199.167-51.916l4.935 1.822c-0.863-0.164-1.627-0.493-2.293-0.955l0.019 0.013c-35.244-14.347-64.205-28.447-92.142-44.153l4.078 2.107c-42.322-23.327-78.728-47.975-112.687-75.523l1.398 1.098-199.496 194.888c27.2 31.99 52.382 67.553 74.29 105.254l1.875 3.495c47.765 80.009 81.439 174.020 94.938 274.426l0.417 3.795zM457.892 226.509l39.793 38.912 41.083-40.141-39.772-38.912zM476.18 286.208l-50.196-49.254h-0.246l-125.665-122.88c-25.599-24.729-60.505-39.968-98.97-39.968s-73.371 15.238-99.010 40.007l0.041-0.039c-25.222 24.542-40.87 58.812-40.87 96.737s15.648 72.196 40.839 96.708l0.031 0.030 176.128 172.298zM626.688 19.436l-71.68-69.878c-0.231-0.31-0.501-0.575-0.808-0.791l-0.011-0.007c-0.775-0.813-1.619-1.546-2.527-2.196l-0.054-0.036c-0.348-0.307-0.655-0.471-0.983-0.778-0.798-0.635-1.693-1.263-2.626-1.837l-0.119-0.068c-0.182-0.195-0.399-0.354-0.643-0.466l-0.013-0.005c-7.023-4.387-15.552-6.989-24.69-6.989-9.247 0-17.871 2.664-25.147 7.267l0.193-0.114c-0.214 0.003-0.396 0.136-0.47 0.324l-0.001 0.003-2.929 1.905c-0.307 0.228-0.571 0.491-0.792 0.789l-0.007 0.010c-1.025 0.74-1.919 1.465-2.772 2.236l0.027-0.024c-0.226 0.309-0.49 0.573-0.789 0.792l-0.010 0.007-157.696 154.132 104.141 101.786 51.917-50.749z" />
<glyph unicode="&#xe906;" glyph-name="blog" d="M833.659 163.574h-622.838v-113.787h622.838v113.787zM833.659 334.254h-622.838v-113.787h622.838v113.766zM833.659 675.574h-226.488v-113.787h226.488v113.787zM833.659 504.914h-226.488v-113.787h226.488v113.787zM833.659 846.234h-226.488v-113.766h226.488v113.766zM550.543 846.234h-339.722v-455.107h339.722v455.107zM890.266-7.107h-736.072v910.234h736.072v-910.234zM97.71 960l-0.143-1024h849.101v1024h-848.957z" />
<glyph unicode="&#xe907;" glyph-name="bonuses" d="M121.795 358.154h360.264v-422.154h-360.264v422.154zM542.106 358.154h360.264v-422.154h-360.264v422.154zM61.747 539.034h420.311v-120.607h-420.311v120.607zM542.106 539.034h420.311v-120.607h-420.311v120.607zM839.68 915.149c-86.917 79.852-182.845 44.851-269.681-35.021-32.251-34.076-53.513-78.848-57.94-128.466l-0.059-0.825c-4.443 50.42-25.64 95.19-57.914 129.396l0.099-0.106c-86.835 79.872-182.804 114.872-269.64 35.021s-48.804-168.141 38.072-248.013 289.382-53.248 289.382-53.248 202.752-26.624 289.485 53.248 124.969 168.182 38.195 248.013zM280.576 773.632c-55.972 51.487-28.938 79.872-28.938 79.872s30.863 24.822 86.835-26.624 115.773-159.744 115.773-159.744-117.76 55.050-173.67 106.496zM743.731 773.632c-55.972-51.466-173.67-106.496-173.67-106.496s59.822 108.237 115.773 159.744 86.835 26.624 86.835 26.624 26.952-28.365-29-79.872z" />
<glyph unicode="&#xe908;" glyph-name="business" d="M1001.472 648.868h-249.672v148.337c-1.134 33.472-28.541 60.175-62.185 60.175-0.624 0-1.246-0.009-1.865-0.027l0.091 0.002h-351.846c-0.529 0.016-1.15 0.025-1.774 0.025-33.644 0-61.050-26.703-62.182-60.071l-0.003-0.104v-148.316h-249.631c-0.18 0.005-0.392 0.008-0.604 0.008-11.811 0-21.43-9.388-21.8-21.11l-0.001-0.034v-557.445c0.999-29.155 24.874-52.41 54.181-52.41 0.551 0 1.099 0.008 1.646 0.025l-0.080-0.002h912.364c0.509-0.017 1.108-0.027 1.709-0.027 29.308 0 53.184 23.258 54.178 52.324l0.002 0.091v557.445c-0.38 11.748-9.995 21.127-21.8 21.127-0.256 0-0.511-0.004-0.764-0.013l0.037 0.001zM358.4 776.049h306.975v-127.16h-306.975v127.16z" />
<glyph unicode="&#xe909;" glyph-name="close-menu" d="M512-63.857c0.097 0 0.212 0 0.328 0 282.77 0 512 229.23 512 512s-229.23 512-512 512c-282.77 0-512-229.23-512-512v0c0.186-282.58 229.118-511.627 511.636-512h0.036zM235.192 480.522l187.433 187.556c8.243 8.42 19.632 13.732 32.262 14.028l0.055 0.001c0.223 0.004 0.487 0.007 0.75 0.007 12.508 0 23.755-5.401 31.535-13.999l0.033-0.037c8.482-8.384 13.735-20.019 13.735-32.881s-5.253-24.497-13.731-32.876l-107.729-107.79h375.951c25.596 0 46.346-20.75 46.346-46.346s-20.75-46.346-46.346-46.346v0h-375.951l108.79-108.892c8.416-8.411 13.621-20.033 13.621-32.87 0-25.665-20.806-46.471-46.471-46.471-12.828 0-24.441 5.197-32.85 13.601v0l-187.433 188.641c-8.624 8.112-13.995 19.598-13.995 32.338s5.371 24.226 13.972 32.317l0.023 0.021z" />
<glyph unicode="&#xe90a;" glyph-name="contact-messages" d="M782.336 449.106l119.849-115.794v2.048c66.335-64.102 120.832-115.773 120.832-115.773 0.983-0.102 0.983 104.182 0.983 231.444v231.547l-120.832-116.736zM745.718 412.774s-40.591-38.277-89.129-85.156c-92.16-88.064-94.085-90.911-117.842-97.608-7.435-1.809-15.97-2.846-24.748-2.846-18.467 0-35.862 4.592-51.105 12.696l0.589-0.286c-5.939 3.83-42.578 37.315-97.055 89.948l-88.064 84.193-138.65-133.96c-123.781-119.603-138.65-134.922-138.65-139.694 1.105-19.023 13.971-34.768 31.387-40.139l0.316-0.084v1.004c2.888-1.004 220.754-1.004 483.185-1.004h477.327l8.909 4.792c3.53 1.622 6.507 3.884 8.901 6.663l0.028 0.034c0 1.905 0.983 1.905 2.048 0.963s2.048-0.963 1.004 0c-0.004 0.103-0.006 0.225-0.006 0.347 0 2.84 1.135 5.414 2.977 7.294l-0.002-0.002c2.826 4.654 4.625 10.216 4.952 16.17l0.004 0.091 0.983 10.527-137.728 133.059c-76.247 72.704-138.65 132.997-139.633 132.997zM0.983 681.636v-465.981l120.832 115.773 120.832 116.736-120.832 116.736zM487.24 283.587c3.392-2.111 7.308-4.042 11.415-5.582l0.463-0.152v-0.963c3.724-1.028 8.001-1.619 12.415-1.619 7.386 0 14.385 1.654 20.648 4.611l-0.295-0.125c6.922 3.83 55.439 49.746 250.552 238.244l241.562 233.472-1.004 10.527c-1.056 13.258-8.693 24.523-19.609 30.62l-0.195 0.1-7.864 3.748h-968.602l-7.926-5.734c-9.992-6.933-16.738-17.94-17.827-30.565l-0.011-0.155-0.963-8.54 240.64-231.547c131.727-128.225 242.688-234.435 246.6-236.339z" />
<glyph unicode="&#xe90b;" glyph-name="dashboard" d="M1020.109 418.468c6.287-6.042 4.239-10.977-4.506-10.977h-137.974c-10.497 0.567-19.957 4.593-27.361 10.947l0.061-0.051-326.902 313.508c-2.97 2.805-6.988 4.529-11.407 4.529s-8.437-1.724-11.415-4.537l0.008 0.008-326.922-313.487c-7.347-6.295-16.804-10.319-27.182-10.89l-0.118-0.005h-137.974c-8.724 0-10.752 4.936-4.485 10.977l146.678 140.923c6.56 7.005 10.782 16.27 11.381 26.509l0.005 0.115v195.379c0.070 8.702 7.14 15.729 15.851 15.729 0.015 0 0.029 0 0.044 0h111.675c0.012 0 0.027 0 0.042 0 8.715 0 15.79-7.025 15.871-15.721v-57.557c0-8.602 5.1-10.732 11.387-4.731l183.747 176.558c2.976 2.792 6.992 4.506 11.407 4.506s8.431-1.715 11.416-4.515l-0.009 0.008zM857.907 324.014c-0.603 10.358-4.834 19.625-11.428 26.647l0.021-0.023-322.58 309.248c-2.973 2.79-6.985 4.504-11.397 4.504s-8.424-1.714-11.406-4.513l0.009 0.008-322.56-309.248c-6.566-7.001-10.79-16.269-11.382-26.51l-0.005-0.114v-295.69c0.093-8.673 7.145-15.667 15.83-15.667 0.022 0 0.044 0 0.066 0h191.71c0.019 0 0.040 0 0.062 0 8.686 0 15.738 6.995 15.83 15.659v194.569c0 8.622 0 16.937-0.225 18.432v1.372c1.256 66.477 55.442 119.886 122.102 119.886s120.845-53.408 122.1-119.768l0.002-0.118v-1.352c0-1.495-0.184-9.81-0.184-18.432v-194.56c0.081-8.67 7.128-15.667 15.81-15.667 0.029 0 0.058 0 0.087 0h191.648c0.025 0 0.054 0 0.083 0 8.682 0 15.729 6.997 15.81 15.66v295.657z" />
<glyph unicode="&#xe90c;" glyph-name="dropdown-down" d="M0.123 734.72l511.877-594.043 511.775 594.043h-1023.652z" />
<glyph unicode="&#xe90d;" glyph-name="dropdown-up" d="M1023.877 140.8l-511.877 594.043-511.754-594.043h1023.631z" />
<glyph unicode="&#xe90e;" glyph-name="edit-profile" d="M331.776 33.567l-234.578 234.557 541.778 541.819 234.496-234.557zM779.264 950.354c5.824 6.116 14.029 9.92 23.122 9.92s17.298-3.804 23.11-9.906l0.012-0.013 188.252-188.314c6.124-6.132 9.912-14.599 9.912-23.951s-3.787-17.819-9.912-23.952v0l-94.208-94.208-234.435 236.257zM49.316 221.88l236.155-236.216-272.486-49.562c-0.578-0.104-1.244-0.163-1.924-0.163-6.323 0-11.448 5.126-11.448 11.448 0 0.68 0.059 1.346 0.173 1.993l-0.010-0.069z" />
<glyph unicode="&#xe90f;" glyph-name="get-traffic" d="M917.729 684.093v129.843l-413.102-410.849-182.067 181.023-143.811-142.889-54.333 54.026c0.777-21.599 3.646-42.115 8.417-61.889l-0.43 2.108c32.897-135.343 153.048-234.263 296.302-234.263 168.18 0 304.517 136.337 304.517 304.517 0 23.272-2.611 45.935-7.555 67.711l0.389-2.040 66.765 66.376c15.026-39.444 23.727-85.059 23.727-132.705 0-75.517-21.857-145.929-59.59-205.254l0.924 1.555 207.79-205.824c16.11-15.906 26.089-37.989 26.089-62.403s-9.979-46.497-26.080-62.394l-0.009-0.009-8.602-8.561c-16.078-16.027-38.262-25.936-62.761-25.936s-46.683 9.909-62.763 25.938l0.002-0.002-210.473 208.179c-55.169-31.982-121.384-50.856-192.007-50.856-213.4 0-386.55 172.327-387.883 385.413l-0.001 0.127c0 6.984 0.246 13.824 0.492 20.664 0.492 9.523 1.352 18.924 2.703 28.344 1.229 10.383 3.072 20.664 5.161 30.72 39.408 176.019 194.317 305.594 379.489 305.594 107.937 0 205.591-44.026 275.984-115.1l0.030-0.031-58.757-58.409c-55.395 56.162-132.334 90.952-217.399 90.952-119.369 0-222.738-68.508-272.933-168.351l-0.8-1.756c-5.206-10.137-10.321-22.327-14.549-34.923l-0.565-1.941 38.728-38.625 143.708 142.889 182.067-181.043 352.338 350.413h-124.928v85.565h271.831v-275.886h-86.016z" />
<glyph unicode="&#xe910;" glyph-name="help" d="M512-63.836c-0.091 0-0.199 0-0.307 0-282.77 0-512 229.23-512 512s229.23 512 512 512c282.77 0 512-229.23 512-512v0c0-0.042 0-0.093 0-0.143 0-282.633-229.072-511.763-511.683-511.857h-0.010zM453.345 322.396h107.192c0 0.081 0 0.177 0 0.274 0 16.773 2.881 32.874 8.174 47.833l-0.309-1.003c6.027 14.238 14.676 26.295 25.435 36.073l0.083 0.074 43.008 40.12c15.854 14.719 29.122 31.947 39.23 51.1l0.501 1.042c7.764 16.022 12.302 34.849 12.302 54.735 0 0.665-0.005 1.329-0.015 1.992l0.001-0.1c0.149 2.383 0.234 5.167 0.234 7.972 0 40.535-17.778 76.917-45.962 101.776l-0.148 0.128c-32.244 24.357-73.002 39.012-117.183 39.012-4.324 0-8.616-0.14-12.871-0.417l0.579 0.030c-3.494 0.231-7.575 0.363-11.687 0.363-45.177 0-86.634-15.926-119.064-42.469l0.334 0.265c-29.204-27.634-47.38-66.665-47.38-109.941 0-2.39 0.055-4.767 0.165-7.13l-0.012 0.335h126.669c-0.013 0.507-0.021 1.104-0.021 1.703 0 16.233 5.502 31.182 14.742 43.082l-0.119-0.159c8.355 10.113 20.899 16.509 34.936 16.509 0.505 0 1.008-0.008 1.509-0.025l-0.073 0.002q48.722 0 48.722-56.627c0-0.089 0.001-0.194 0.001-0.299 0-15.973-5.392-30.686-14.456-42.419l0.119 0.161c-12.598-15.903-26.424-29.885-41.632-42.229l-0.496-0.39c-17.538-14.439-31.243-32.907-39.776-54.019l-0.324-0.908c-7.974-23.093-12.579-49.704-12.579-77.391 0-3.184 0.061-6.354 0.182-9.509l-0.014 0.454zM437.985 208.384c-0.014-0.472-0.022-1.028-0.022-1.586 0-17.529 7.746-33.248 20.002-43.923l0.070-0.060c13.518-11.093 30.99-17.818 50.033-17.818s36.515 6.724 50.171 17.928l-0.139-0.11c12.341 11.334 20.048 27.546 20.048 45.558s-7.707 34.223-20.003 45.517l-0.045 0.041c-13.515 11.1-30.988 17.83-50.033 17.83s-36.518-6.729-50.171-17.94l0.138 0.11c-12.325-10.727-20.071-26.441-20.071-43.964 0-0.557 0.008-1.112 0.023-1.665l-0.002 0.081z" />
<glyph unicode="&#xe911;" glyph-name="library" d="M827.392 131.031v0c3.584 0 60.498-1.434 63.59 0 0.205 0-63.836 0-63.59 0 1.065 0.512 62.669-0.655 63.59 0 1.454 0.983-1.208-1.27 0 0s-0.819-1.331 0 0-0.594-1.454 0 0-0.246-1.7 0 0c0.143 1.085 0 62.792 0 63.98v703.734c2.048-4.977-29.020 0-42.394 0h-847.995c6.492-2.048 0-4.977 0 0v-730.685c0.132-0.932 0.304-1.742 0.524-2.533l-0.033 0.137c0.323-3.254 1.324-6.216 2.861-8.825l-0.055 0.101c0.766-1.359 1.587-2.532 2.506-3.618l-0.028 0.034c1.083-1.249 2.257-2.364 3.529-3.358l0.055-0.041c0.535-0.59 1.104-1.126 1.712-1.616l0.029-0.022c0.573-0.369 1.249-0.369 1.843-0.717 1.454-0.758-14.541-16.097-12.943-16.568s-1.638 0.143 0 0c0.717 0-0.676 0 0 0h826.798zM827.392 834.785v-575.795l-223.683 438.149c-4.032 7.675-11.875 12.861-20.947 13.045h-0.025c-0.317 0.015-0.689 0.024-1.062 0.024-8.769 0-16.433-4.726-20.586-11.77l-0.061-0.112-178.053-303.227-122.88 119.644c-4.433 4.256-10.465 6.877-17.108 6.877-0.921 0-1.83-0.050-2.725-0.148l0.11 0.010c-7.44-0.763-13.807-4.79-17.722-10.604l-0.055-0.087-158.392-251.802v575.795h763.187zM267.1 804.495c0.479 0.007 1.043 0.011 1.609 0.011 65.434 0 118.59-52.574 119.529-117.785l0.001-0.088c-0.963-65.271-54.1-117.812-119.509-117.812-0.573 0-1.145 0.004-1.717 0.012l0.087-0.001c-0.485-0.007-1.057-0.011-1.63-0.011-65.423 0-118.569 52.565-119.509 117.765l-0.001 0.088c0.963 65.282 54.11 117.832 119.53 117.832 0.566 0 1.131-0.004 1.695-0.012l-0.086 0.001zM1018.143 26.665v744.141c0 13.005 13.373 0 0 0h-63.59c8.479 2.048 3.973-0.983 0 0v-639.775c0.144-1.546 0.226-3.343 0.226-5.16 0-32.586-26.416-59.003-59.003-59.003-1.723 0-3.429 0.074-5.115 0.219l0.219-0.015h-763.085c-13.373 0 0 13.005 0 0v-63.98c0-13.025-13.373 0 0 0h866.12c0.098-0.001 0.214-0.002 0.33-0.002 13.078 0 23.703 10.504 23.897 23.536v0.018z" />
<glyph unicode="&#xe912;" glyph-name="logout" d="M978.719 570.327c-38.401 113.602-116.341 205.245-217.079 260.485l-2.405 1.208c-2.062 1.217-4.544 1.936-7.194 1.936-7.918 0-14.336-6.418-14.336-14.336 0-0.141 0.002-0.281 0.006-0.42v0.021-106.68c0.44-4.546 2.558-8.527 5.719-11.373l0.016-0.014c56.051-41.781 98.474-99.016 121.216-165.387l0.722-2.426c12.498-35.302 19.719-76.015 19.719-118.414 0-79.939-25.67-153.883-69.216-214.038l0.734 1.066c-67.791-89.812-174.154-147.394-293.989-147.906h-0.083c-0.391-0.001-0.853-0.002-1.315-0.002-41.58 0-81.584 6.745-118.978 19.201l2.656-0.767c-103.954 32.443-185.149 110.222-221.609 209.591l-0.763 2.377c-14.332 37.666-22.631 81.222-22.631 126.716 0 80.038 25.685 154.076 69.263 214.322l-0.737-1.070c20.613 28.65 44.793 53.084 72.256 73.321l0.899 0.632c3.178 2.859 5.296 6.841 5.729 11.316l0.006 0.071v108.032c-0.146 8.020-6.682 14.465-14.723 14.465-2.486 0-4.828-0.616-6.882-1.704l0.080 0.039c-147.733-83.022-245.906-238.742-245.906-417.391 0-60.573 11.286-118.51 31.87-171.823l-1.107 3.26c49.679-135.411 157.43-239.070 292.254-282.137l3.252-0.897c46.635-16.061 100.377-25.418 156.279-25.6h0.086c0.46-0.002 1.005-0.003 1.55-0.003 265.148 0 480.092 214.945 480.092 480.092 0 55.208-9.319 108.24-26.469 157.608l1.019-3.37zM605.737 888.893v-432.353c0.001-0.111 0.001-0.243 0.001-0.375 0-39.067-31.67-70.738-70.738-70.738-0.332 0-0.663 0.002-0.993 0.007l0.050-0.001h-21.565c-0.28-0.004-0.611-0.006-0.943-0.006-39.067 0-70.738 31.67-70.738 70.738 0 0.132 0 0.264 0.001 0.395v-0.020 432.353c-0.001 0.111-0.001 0.243-0.001 0.375 0 39.067 31.67 70.738 70.738 70.738 0.332 0 0.663-0.002 0.993-0.007l-0.050 0.001h21.524c39.205-0.471 70.903-31.954 71.72-71.030l0.001-0.077z" />
<glyph unicode="&#xe913;" glyph-name="members" d="M40.694 25.17v846.029c-0.022 0.726-0.034 1.579-0.034 2.435 0 46.916 37.304 85.12 83.869 86.567l0.133 0.003h774.41c46.696-1.439 84.003-39.638 84.003-86.551 0-0.863-0.013-1.724-0.038-2.581l0.003 0.126v-846.029c0.022-0.731 0.035-1.592 0.035-2.455 0-46.912-37.307-85.111-83.871-86.548l-0.132-0.003h-774.41c-46.698 1.451-84.002 39.654-84.002 86.571 0 0.856 0.012 1.71 0.037 2.56l-0.003-0.125zM158.474 177.111h706.744v60.252h-706.744v-60.252zM158.474 56.668h706.744v60.232h-706.744v-60.232zM276.48 318.976c-0.012-0.264-0.019-0.573-0.019-0.883 0-10.768 8.463-19.56 19.101-20.086l0.047-0.002h431.923c10.685 0.528 19.148 9.32 19.148 20.088 0 0.311-0.007 0.62-0.021 0.927l0.002-0.044v51.671c0.001 0.115 0.001 0.25 0.001 0.386 0 15.669-6.691 29.776-17.372 39.619l-0.038 0.034c-40.21 35.677-85.169 67.671-133.362 94.568l-3.854 1.975c-1.453 0.826-2.418 2.364-2.418 4.127 0 0.040 0 0.079 0.001 0.118v-0.006 50.196c6.352 11.442 11.044 24.76 13.321 38.886l0.093 0.702c5.14 0 11.837 8.192 19.128 36.454 9.994 38.523 0 44.134-9.564 43.192 1.467 4.308 2.804 9.565 3.753 14.957l0.098 0.67c15.135 99.86-28.979 103.281-28.979 103.281-6.497 11.723-15.812 21.182-27.057 27.669l-0.346 0.184c-12.859 8.409-28.607 13.412-45.524 13.412-3.444 0-6.839-0.207-10.174-0.61l0.402 0.040c-8.002-0.429-15.496-2.060-22.485-4.717l0.51 0.17c-9.278-3.563-17.297-8.155-24.474-13.774l0.205 0.155c-9.453-6.61-17.656-14.032-24.842-22.358l-0.144-0.17c-12.955-14.084-22.401-31.596-26.827-51.018l-0.145-0.756c-1.665-7.597-2.619-16.323-2.619-25.272s0.954-17.675 2.766-26.083l-0.146 0.81c1.035-6.063 2.371-11.335 4.074-16.441l-0.224 0.774c-8.847 0.963-19.415-4.69-9.564-43.172 7.27-28.017 14.336-35.983 19.128-36.475 2.364-15.17 7.111-28.81 13.885-41.182l-0.327 0.652v-50.074c0.001-0.027 0.001-0.060 0.001-0.092 0-1.763-0.964-3.301-2.394-4.114l-0.023-0.012c-52.089-28.857-97.084-60.853-138.107-97.229l0.788 0.686c-10.718-9.873-17.41-23.977-17.41-39.644 0-0.146 0.001-0.292 0.002-0.437v0.022z" />
<glyph unicode="&#xe914;" glyph-name="notification" d="M940.544 198.472c-3.865 18.133-19.747 31.537-38.76 31.537-21.864 0-39.588-17.724-39.588-39.588 0-3.255 0.393-6.417 1.133-9.444l-0.056 0.271c0.508-2.44 0.799-5.243 0.799-8.114 0-10.016-3.54-19.206-9.438-26.385l0.058 0.073c-7.198-7.945-17.554-12.914-29.071-12.914-0.342 0-0.683 0.004-1.023 0.013l0.050-0.001h-609.608c-0.29-0.008-0.631-0.012-0.973-0.012-11.517 0-21.873 4.97-29.042 12.881l-0.030 0.033c-6.054 6.593-9.765 15.423-9.765 25.119 0 3.308 0.432 6.515 1.242 9.567l-0.059-0.26c11.996 52.112 31.249 98.112 56.961 139.696l-1.133-1.968c25.764 47.329 55.808 94.659 55.808 167.793v60.211c0.353 126.491 101.428 229.259 227.226 232.34l0.286 0.006h8.581c126.067-3.109 227.119-105.868 227.471-232.311v-56.006c0.732-52.327 14.975-101.175 39.384-143.41l-0.758 1.422c7.167-12.073 19.679-20.323 34.19-21.494l0.155-0.010c0.808-0.090 1.745-0.141 2.694-0.141 5.401 0 10.414 1.661 14.556 4.499l-0.088-0.057c13.226 7.021 22.081 20.707 22.081 36.461 0 7.131-1.814 13.838-5.006 19.685l0.108-0.215c-18.82 28.075-30.036 62.625-30.036 99.794 0 1.219 0.012 2.435 0.036 3.648l-0.003-0.181v60.273c0.006 0.742 0.010 1.619 0.010 2.496 0 84.764-34.45 161.482-90.112 216.916l-0.010 0.010c-46.557 48.329-108.901 81.161-178.711 90.178l-1.513 0.16v60.273c0 21.338-17.298 38.636-38.636 38.636s-38.636-17.298-38.636-38.636v-60.252c-153.484-20.78-270.543-150.965-270.543-308.491 0-0.453 0.001-0.906 0.003-1.359v0.070-60.273c0-51.63-21.463-86.016-43.008-129.024-30.582-46.739-53.071-101.708-63.967-160.74l-0.422-2.752c-1.429-6.872-2.246-14.768-2.246-22.856 0-29.112 10.597-55.749 28.145-76.264l-0.134 0.161c21.809-25.818 53.967-42.303 89.992-43.006l0.12-0.002h184.586c1.344-65.938 54.381-119.054 120.161-120.522l0.139-0.002c65.86 1.525 118.833 54.598 120.195 120.355l0.002 0.129h184.586c36.145 0.705 68.303 17.19 89.965 42.829l0.147 0.179c14.801 20.993 23.656 47.101 23.656 75.278 0 8.379-0.783 16.575-2.28 24.519l0.128-0.818zM519.864 13.455c-0.018 0-0.040 0-0.062 0-21.276 0-38.523 17.247-38.523 38.523 0 0.072 0 0.144 0.001 0.216v-0.011h81.51c-4.844-20.53-21.756-36.025-42.675-38.701l-0.251-0.026z" />
<glyph unicode="&#xe915;" glyph-name="open-menu" d="M512 960c-282.682-0.117-511.795-229.302-511.795-512 0-282.77 229.23-512 512-512s512 229.23 512 512v0c-0.338 282.706-229.483 511.779-512.184 512h-0.021zM789.135 415.642l-187.638-187.535c-8.255-8.424-19.659-13.736-32.304-14.028l-0.054-0.001c-0.225-0.004-0.489-0.007-0.755-0.007-12.519 0-23.778 5.401-31.571 14l-0.032 0.036c-8.486 8.378-13.742 20.010-13.742 32.87s5.256 24.492 13.738 32.866l107.853 107.791h-376.34c-25.596 0-46.346 20.75-46.346 46.346s20.75 46.346 46.346 46.346v0h376.32l-108.913 108.872c-8.010 8.342-12.943 19.692-12.943 32.194 0 25.687 20.823 46.51 46.51 46.51 12.512 0 23.871-4.941 32.23-12.978l-0.015 0.015 187.638-188.621c8.641-8.107 14.024-19.599 14.024-32.348s-5.383-24.241-14.001-32.326l-0.024-0.022z" />
<glyph unicode="&#xe916;" glyph-name="premium-support" d="M970.752 348.017c6.621 30.008 10.472 64.513 10.588 99.898v0.085c0.001 0.381 0.002 0.831 0.002 1.281 0 65.395-13.614 127.61-38.164 183.965l1.154-2.975c-47.674 113.743-136.323 202.399-247.035 248.952l-3.026 1.129c-53.39 23.382-115.613 36.989-181.014 36.989-0.442 0-0.884-0.001-1.326-0.002h0.068c-35.49-0.137-69.998-4.016-103.248-11.263l3.244 0.593c-41.986 33.248-95.715 53.337-154.136 53.337-0.654 0-1.307-0.003-1.96-0.008l0.1 0.001c-1.148 0.019-2.502 0.030-3.859 0.030-69.479 0-132.249-28.724-177.083-74.945l-0.060-0.062c-46.295-44.89-75.028-107.663-75.028-177.146 0-1.363 0.011-2.724 0.033-4.081l-0.003 0.205c-0.005-0.581-0.008-1.268-0.008-1.956 0-58.377 20.057-112.070 53.655-154.563l-0.399 0.523c-6.631-30.018-10.482-64.531-10.588-99.926v-0.078c-0.001-0.374-0.002-0.817-0.002-1.26 0-65.402 13.614-127.624 38.163-183.987l-1.154 2.975c47.678-113.729 136.327-202.371 247.035-248.912l3.026-1.129c53.398-23.395 115.632-37.009 181.045-37.009 0.432 0 0.863 0.001 1.295 0.002h-0.068c35.498 0.138 70.013 4.017 103.27 11.263l-3.246-0.593c41.983-33.261 95.715-53.357 154.141-53.357 0.645 0 1.29 0.002 1.933 0.007l-0.099-0.001c141.385 0 256 114.615 256 256v0c0.005 0.57 0.007 1.245 0.007 1.92 0 58.396-20.056 112.107-53.655 154.621l0.4-0.525zM759.992 249.016c-14.422-25.664-34.347-46.663-58.285-61.925l-0.697-0.416c-23.494-14.918-50.65-27.102-79.536-35.128l-2.138-0.507c-27.553-7.804-59.197-12.291-91.889-12.291-0.505 0-1.011 0.001-1.516 0.003h0.078c-3.231-0.093-7.032-0.145-10.846-0.145-66.823 0-129.861 16.202-185.401 44.891l2.261-1.062q-81.347 43.684-81.347 105.001c-0.028 0.765-0.044 1.664-0.044 2.567 0 18.075 6.436 34.646 17.142 47.548l-0.099-0.123c11.435 12.404 27.763 20.147 45.901 20.147 1.562 0 3.111-0.057 4.644-0.17l-0.205 0.012c0.057 0 0.125 0 0.192 0 13.321 0 25.714-3.974 36.057-10.802l-0.245 0.152c11.637-7.533 21.715-16.010 30.631-25.585l0.089-0.096q14.008-15.012 30.331-30.003c12.26-10.741 26.639-19.436 42.381-25.347l0.955-0.314c17.339-6.768 37.412-10.691 58.402-10.691 0.917 0 1.833 0.007 2.746 0.022l-0.138-0.002c1.748-0.085 3.796-0.133 5.855-0.133 23.611 0 45.736 6.36 64.757 17.461l-0.611-0.329c15.616 8.38 26.161 24.411 26.623 42.946l0.001 0.062c0.036 0.666 0.056 1.445 0.056 2.23 0 15.954-8.481 29.928-21.181 37.658l-0.195 0.11c-21.494 10.246-46.498 18.559-72.642 23.691l-2.028 0.332-97.341 24.023c-26.477 5.928-49.412 13.371-71.373 22.663l2.704-1.016c-20.344 8.894-37.884 19.73-53.646 32.654l0.398-0.316c-16.228 13.245-28.964 30.157-37.027 49.505l-0.309 0.835c-8.036 19.869-12.699 42.913-12.699 67.047 0 1.392 0.016 2.78 0.046 4.164l-0.004-0.206c-0.031 1.179-0.049 2.568-0.049 3.961 0 59.654 32.59 111.695 80.936 139.293l0.787 0.414c22.942 13.241 49.494 24.002 77.565 30.898l2.102 0.437c26.053 6.508 55.961 10.242 86.742 10.242 0.465 0 0.93-0.001 1.394-0.003h-0.072c0.736 0.004 1.606 0.007 2.477 0.007 42.256 0 83.204-5.6 122.142-16.098l-3.275 0.752c36.22-8.992 67.914-24.563 95.275-45.509l-0.617 0.453c21.653-14.69 36.027-38.706 37.328-66.144l0.007-0.191c0.011-0.484 0.018-1.055 0.018-1.627 0-19.133-7.22-36.579-19.083-49.764l0.060 0.068c-11.785-13.134-28.813-21.358-47.761-21.358-0.964 0-1.924 0.021-2.878 0.063l0.136-0.005c-0.162-0.001-0.354-0.002-0.547-0.002-11.528 0-22.362 2.968-31.781 8.181l0.337-0.171c-10.133 5.584-18.873 12-26.684 19.389l0.060-0.056q-12.001 11.325-25.334 22.323c-10.262 8.004-22.209 14.469-35.146 18.765l-0.837 0.241c-14.612 5.075-31.454 8.005-48.981 8.005-0.831 0-1.66-0.007-2.488-0.020l0.125 0.002q-95.99 0-95.99-51.343c-0.005-0.232-0.008-0.506-0.008-0.78 0-7.055 1.856-13.677 5.107-19.403l-0.102 0.195c3.021-5.399 6.68-10.017 10.96-13.974l0.037-0.034c5.703-4.472 12.336-8.098 19.519-10.532l0.47-0.138c6.14-2.545 13.912-5.169 21.871-7.337l1.476-0.343q9.277-2.314 29.225-7.066l69.345-15.995q32.666-7.332 58.327-15.34c21.482-6.947 39.679-14.625 57.069-23.643l-2.060 0.972c18.608-9.062 34.624-19.965 48.838-32.823l-0.177 0.158c13.312-12.733 24.198-27.873 31.981-44.739l0.377-0.911c8.205-17.38 12.995-37.755 12.995-59.248 0-0.62-0.004-1.238-0.012-1.856l0.001 0.094c0.012-0.761 0.019-1.658 0.019-2.557 0-31.212-8.17-60.516-22.488-85.89l0.454 0.874z" />
<glyph unicode="&#xe917;" glyph-name="products" d="M994.898 770.376l-469.811 146.985c-3.844 1.466-8.289 2.316-12.933 2.316s-9.089-0.849-13.19-2.401l0.256 0.085-469.832-146.985c-16.772-4.883-28.859-20.016-29.081-38.006v-588.99c0.225-18.021 12.322-33.156 28.819-37.961l0.283-0.071 469.832-146.985c3.862-1.302 8.31-2.053 12.933-2.053s9.071 0.751 13.228 2.139l-0.295-0.085 469.832 146.985c16.763 4.89 28.841 20.021 29.061 38.006v588.989c-0.225 18.021-12.322 33.156-28.819 37.961l-0.283 0.071zM512.143 838.226l336.2-105.882-336.2-104.837-104.448 32.891 73.277 25.702c15.924 5.48 27.162 20.332 27.162 37.808 0 4.871-0.873 9.537-2.47 13.852l0.090-0.276c-6.733 15.494-21.903 26.132-39.559 26.132-5.157 0-10.103-0.908-14.685-2.572l0.299 0.095-172.421-59.617-103.444 32.891zM83.272 677.868l151.941-47.288v-326.861c0.6-22.245 18.776-40.049 41.11-40.049 0.322 0 0.643 0.004 0.963 0.011l-0.048-0.001c0.459-0.019 0.997-0.029 1.538-0.029 22.228 0 40.272 17.911 40.487 40.088v300.134l151.941-47.329v-504.648l-387.932 121.283v504.689zM789.094 124.908v206.561c-1.422 22.075-19.675 39.442-41.984 39.442s-40.562-17.366-41.978-39.318l-0.006-0.124v-232.305l-151.941-47.288v504.668l386.847 121.324v-504.689z" />
<glyph unicode="&#xe918;" glyph-name="reports" d="M575.939 84.992h128v449.208h-128v-449.208zM319.939 84.992h128v834.273h-128v-834.273zM63.939 84.992h128v641.741h-127.98v-641.741zM1024 20.808h-1024v-64.184h1024v64.184zM832 84.992h128v705.884h-128v-705.884z" />
<glyph unicode="&#xe919;" glyph-name="reset" d="M963.072 505.344c0-221.061-133.243-414.966-345.457-455.455v-113.889l-364.995 191.488 364.995 206.848v-113.869c131.461 37.56 200.335 143.135 200.335 284.795-2.482 172.35-142.778 311.112-315.484 311.112s-313.002-138.762-315.482-310.878l-0.003-0.234c-0.001-0.226-0.001-0.494-0.001-0.762 0-47.76 10.972-92.957 30.533-133.209l-0.795 1.813-131.359-60.887c-27.451 56.181-43.501 122.246-43.501 192.059 0 0.375 0 0.75 0.001 1.125v-0.058c2.096 251.404 206.383 454.397 458.082 454.397 0.884 0 1.767-0.003 2.65-0.008l-0.136 0.001c0.753 0.004 1.643 0.007 2.534 0.007 251.699 0 455.987-202.993 458.080-454.198l0.001-0.198z" />
<glyph unicode="&#xe91a;" glyph-name="settings" d="M882.463 463.647l141.312 43.008c-7.62 66.145-26.716 126.338-55.31 180.76l1.345-2.81-141.312-43.008c-18.685 30.393-40.327 56.563-65.112 79.369l-0.26 0.237 69.468 130.253c-46.53 37.372-100.998 67.244-160.208 86.645l-3.632 1.030-69.632-130.355c-26.054 6.601-55.964 10.389-86.759 10.389-5.501 0-10.973-0.121-16.415-0.36l0.775 0.027-42.906 141.312c-66.114-7.647-126.269-26.755-180.657-55.351l2.808 1.345 42.906-141.312c-30.37-18.736-56.519-40.43-79.299-65.265l-0.245-0.271-130.212 69.632c-37.38-46.568-67.241-101.087-86.608-160.353l-1.026-3.63 130.273-69.632c-6.614-26.098-10.409-56.059-10.409-86.906 0-5.507 0.121-10.985 0.36-16.433l-0.027 0.775-141.312-43.008c7.618-66.146 26.715-126.339 55.31-180.761l-1.345 2.81 141.312 43.008c18.701-30.388 40.348-56.556 65.132-79.369l0.26-0.236-69.591-130.232c46.529-37.375 100.997-67.247 160.209-86.645l3.631-1.030 69.632 130.355c26.128-6.609 56.123-10.402 87.004-10.402 5.451 0 10.874 0.118 16.267 0.352l-0.769-0.027 42.885-141.312c66.11 7.603 126.271 26.709 180.645 55.327l-2.796-1.341-42.906 141.312c30.377 18.736 56.533 40.43 79.32 65.266l0.245 0.27 130.212-69.632c37.356 46.57 67.215 101.078 86.604 160.326l1.030 3.637-130.273 69.632c6.614 26.109 10.409 56.081 10.409 86.94 0 5.509-0.121 10.99-0.36 16.44l0.027-0.776zM576.737 235.131c-19.401-6.122-41.713-9.65-64.848-9.65-123.005 0-222.72 99.715-222.72 222.72s99.715 222.72 222.72 222.72c99.909 0 184.453-65.785 212.679-156.401l0.424-1.578c6.124-19.397 9.653-41.705 9.653-64.836 0-99.856-65.757-184.353-156.33-212.552l-1.577-0.423z" />
<glyph unicode="&#xe91b;" glyph-name="subscription" d="M857.027 826.429h133.591c18.442 0 33.393 14.95 33.393 33.393s-14.95 33.393-33.393 33.393v0h-222.618c-18.427-0.023-33.359-14.955-33.382-33.38v-222.62c0-18.442 14.95-33.393 33.393-33.393s33.393 14.95 33.393 33.393v0 149.135c95.64-82.147 155.844-203.218 155.844-338.35 0-245.885-199.329-445.215-445.215-445.215-0.011 0-0.023 0-0.034 0h0.002c-18.442 0-33.393-14.95-33.393-33.393s14.95-33.393 33.393-33.393v0c0.047 0 0.102 0 0.157 0 282.77 0 512 229.23 512 512 0 149.732-64.274 284.451-166.736 378.074l-0.394 0.355zM256 292.168c-18.427-0.023-33.359-14.955-33.382-33.38v-148.953c-94.965 82.57-154.918 203.276-155.831 338.006l-0.001 0.16c0.291 245.768 199.447 444.923 445.187 445.215h0.028c18.442 0 33.393 14.95 33.393 33.393s-14.95 33.393-33.393 33.393v0c-0.047 0-0.102 0-0.157 0-282.77 0-512-229.23-512-512 0-149.732 64.274-284.451 166.736-378.074l0.394-0.355h-133.591c-18.442 0-33.393-14.95-33.393-33.393s14.95-33.393 33.393-33.393h222.618c18.427 0.023 33.359 14.955 33.382 33.38v222.62c-0.023 18.427-14.955 33.359-33.38 33.382h-0.002zM483.062 261.181v-16.876c0-16.599 13.456-30.054 30.054-30.054s30.054 13.456 30.054 30.054v0 18.248c24.674 3.759 46.317 14.635 63.316 30.439l-0.073-0.067c17.401 17.039 28.189 40.772 28.189 67.025 0 1.998-0.062 3.981-0.186 5.948l0.013-0.269c0.112 1.717 0.176 3.723 0.176 5.744 0 26.094-10.683 49.693-27.915 66.662l-0.012 0.012c-21.667 19.272-47.598 34.279-76.156 43.412l-1.505 0.416c-15.971 4.605-29.826 12.116-41.628 21.996l0.177-0.144c-5.591 5.983-9.024 14.045-9.024 22.908 0 0.529 0.012 1.055 0.036 1.578l-0.003-0.074c-0.026 0.533-0.041 1.158-0.041 1.787 0 9.483 3.414 18.169 9.080 24.896l-0.048-0.058c6.71 5.652 15.45 9.087 24.992 9.087 0.963 0 1.918-0.035 2.864-0.104l-0.127 0.007c11.062-0.127 20.847-5.486 27.011-13.715l0.064-0.089c4.396-5.585 7.527-12.368 8.848-19.777l0.040-0.273c4.279-17.749 20.021-30.731 38.796-30.731 0.329 0 0.657 0.004 0.984 0.012l-0.049-0.001c12.276 0.015 23.234 5.65 30.439 14.47l0.056 0.071c5.562 6.653 8.939 15.298 8.939 24.733 0 2.677-0.272 5.29-0.789 7.814l0.043-0.25c-3.774 17.706-11.248 33.252-21.605 46.424l0.183-0.242c-15.236 18.046-36.195 30.833-60.053 35.565l-0.67 0.111v23.798c-0.442 16.566-13.976 29.826-30.607 29.826s-30.165-13.26-30.606-29.785l-0.001-0.041v-23.818c-24.22-4.512-45.25-15.902-61.574-32.042l0.011 0.011c-16.384-17.819-26.427-41.693-26.427-67.913 0-1.102 0.018-2.199 0.053-3.292l-0.004 0.159c-0.087-1.524-0.137-3.308-0.137-5.103 0-26.44 10.808-50.356 28.246-67.571l0.010-0.010c21.979-18.924 48.27-33.522 77.148-42.114l1.495-0.382c15.086-4.217 28.164-11.346 39.192-20.799l-0.137 0.115c6.25-6.208 10.118-14.807 10.118-24.31 0-0.425-0.008-0.848-0.023-1.269l0.002 0.061c0.073-0.798 0.115-1.727 0.115-2.665 0-9.368-4.165-17.763-10.745-23.434l-0.040-0.034c-8.093-6-18.276-9.604-29.301-9.604-1.22 0-2.43 0.044-3.628 0.131l0.16-0.009c-0.741-0.041-1.608-0.065-2.481-0.065-12.079 0-23.109 4.496-31.506 11.906l0.052-0.045c-5.649 4.746-9.563 11.397-10.75 18.953l-0.023 0.175c-3.578 17.398-18.767 30.296-36.969 30.296-0.244 0-0.487-0.002-0.73-0.007l0.036 0.001h-1.065c-21.381-0.025-38.704-17.364-38.704-38.748 0-3.465 0.455-6.823 1.308-10.019l-0.061 0.271c4.743-18.684 14.034-34.771 26.638-47.589l-0.014 0.014c17.867-16.265 40.519-27.567 65.607-31.566l0.728-0.096z" />
<glyph unicode="&#xe91c;" glyph-name="tickets" d="M365.076-64.225c-0.027 0-0.059 0-0.091 0-13.101 0-24.956 5.332-33.515 13.945l-0.002 0.002-39.424 39.526c-8.591 8.591-13.904 20.459-13.904 33.568 0 6.601 1.347 12.887 3.781 18.598l-0.117-0.31c-5.393-2.304-11.667-3.643-18.254-3.643-13.109 0-24.98 5.304-33.582 13.884l-26.254 26.234c-8.609 8.628-13.932 20.537-13.932 33.689 0 6.529 1.312 12.752 3.686 18.419l-0.117-0.315c-5.325-2.267-11.52-3.584-18.022-3.584-0.043 0-0.086 0-0.129 0h0.007c-0.029 0-0.064 0-0.099 0-13.098 0-24.951 5.332-33.506 13.944l-26.238 26.238c-8.609 8.625-13.933 20.532-13.933 33.682 0 6.548 1.32 12.787 3.708 18.467l-0.117-0.314c-5.374-2.284-11.626-3.612-18.187-3.612-13.099 0-24.962 5.292-33.568 13.854l0.002-0.002-39.424 39.485c-8.546 8.643-13.829 20.527-13.844 33.646v0.003c0 0.035 0 0.076 0 0.118 0 13.071 5.299 24.904 13.865 33.469l429.486 429.834c4.816 4.819 11.47 7.8 18.821 7.803h0.001c4.597-0.003 8.922-1.17 12.694-3.224l-0.14 0.070c-1.985 3.636-3.152 7.965-3.152 12.567 0 7.354 2.981 14.011 7.801 18.829v0l145.777 145.879c8.662 8.475 20.529 13.704 33.618 13.704s24.956-5.229 33.627-13.712l-0.009 0.008 39.424-39.424c8.562-8.629 13.852-20.514 13.852-33.634 0-6.573-1.328-12.836-3.73-18.535l0.117 0.314c5.381 2.292 11.64 3.625 18.211 3.625 13.1 0 24.963-5.297 33.564-13.866l26.336-26.316c8.605-8.633 13.925-20.545 13.925-33.699 0-6.525-1.309-12.745-3.679-18.41l0.117 0.315c5.335 2.243 11.536 3.547 18.042 3.547 13.156 0 25.068-5.331 33.691-13.951l26.255-26.235c8.609-8.631 13.932-20.543 13.932-33.698 0-6.549-1.319-12.79-3.707-18.472l0.117 0.314c5.385 2.296 11.649 3.631 18.225 3.631 13.103 0 24.969-5.3 33.57-13.872l-0.001 0.001 39.404-39.444c8.572-8.622 13.871-20.506 13.871-33.628s-5.299-25.007-13.874-33.63l-145.795-145.918c-4.818-4.816-11.472-7.794-18.822-7.794-4.596 0-8.92 1.165-12.693 3.215l0.14-0.070c1.976-3.63 3.138-7.949 3.138-12.54 0-7.357-2.984-14.017-7.807-18.835v0l-429.507-429.773c-8.572-8.627-20.444-13.967-33.563-13.967-0.023 0-0.046 0-0.069 0h0.004zM333.476 23.020l31.621-31.621 406.671 406.917-309.576 309.78-406.671-406.917 31.621-31.621c8.414 6.549 19.131 10.5 30.771 10.5 13.663 0 26.054-5.443 35.124-14.279l-0.011 0.011c8.956-8.994 14.492-21.399 14.492-35.098 0-11.69-4.032-22.438-10.782-30.93l0.078 0.102 18.678-18.678c8.315 6.511 18.923 10.44 30.449 10.44 27.406 0 49.623-22.217 49.623-49.623 0-11.526-3.93-22.134-10.522-30.558l0.082 0.109 18.657-18.678c8.406 6.54 19.112 10.486 30.739 10.486 13.681 0 26.087-5.462 35.155-14.325l-0.009 0.009c9.009-8.988 14.583-21.416 14.583-35.146 0-11.718-4.060-22.488-10.851-30.98l0.077 0.099zM488.653 756.961l331.96-332.206c-1.135 2.849-1.793 6.15-1.793 9.605 0 7.35 2.978 14.004 7.794 18.822l141.742 141.844-31.601 31.642c-8.393-6.561-19.091-10.527-30.715-10.547h-0.005c-0.040 0-0.087 0-0.134 0-13.623 0-25.967 5.474-34.954 14.342l0.005-0.005c-8.957 8.979-14.495 21.372-14.495 35.058 0 11.703 4.050 22.46 10.824 30.947l-0.077-0.1-18.719 18.698c-8.409-6.538-19.118-10.482-30.748-10.482-13.664 0-26.056 5.444-35.127 14.281l0.011-0.010c-8.962 8.989-14.504 21.394-14.504 35.092 0 11.703 4.045 22.462 10.813 30.954l-0.077-0.101-18.657 18.678c-8.417-6.546-19.137-10.495-30.779-10.495-13.676 0-26.079 5.449-35.157 14.294l0.011-0.011c-8.966 8.987-14.51 21.391-14.51 35.090 0 11.705 4.048 22.465 10.819 30.955l-0.077-0.1-31.724 31.642-141.742-141.844c-4.819-4.826-11.481-7.812-18.84-7.812-3.433 0-6.713 0.65-9.726 1.833l0.181-0.063zM380.109 178.483c-14.7 0.006-26.614 11.923-26.614 26.624 0 7.35 2.978 14.004 7.793 18.821l108.667 108.769c4.856 5.076 11.685 8.232 19.25 8.232 14.704 0 26.624-11.92 26.624-26.624 0-7.565-3.155-14.394-8.222-19.241l-0.010-0.009-108.667-108.769c-4.818-4.821-11.477-7.803-18.831-7.803-0.032 0-0.065 0-0.097 0h0.005zM278.979 279.654c-0.021 0-0.047 0-0.072 0-14.704 0-26.624 11.92-26.624 26.624 0 7.36 2.986 14.022 7.813 18.841v0l166.584 166.687c4.878 5.263 11.829 8.546 19.546 8.546 14.704 0 26.624-11.92 26.624-26.624 0-7.737-3.301-14.704-8.571-19.568l-0.018-0.017-166.584-166.687c-4.8-4.82-11.442-7.803-18.78-7.803-0.007 0-0.015 0-0.022 0h0.001z" />
<glyph unicode="&#xe91d;" glyph-name="update-log" d="M688.579 56.443c7.255 6.029 13.792 12.053 20.009 18.391l0.040 0.041c2.37 2.214 4.559 4.534 6.597 6.983l0.1 0.123s-2.232-1.413-7.803-5.673c-6.183-4.929-13.104-9.63-20.374-13.79l-0.803-0.423c-23.054-14.859-49.613-27.388-77.802-36.232l-2.336-0.632c-16.072-4.603-35.029-8.123-54.499-9.866l-1.207-0.087c-4.501-0.341-9.749-0.536-15.043-0.536s-10.541 0.195-15.737 0.577l0.695-0.041h-7.885l-7.803 1.413c-5.571 1.434-11.141 1.434-16.712 2.867-12.632 1.961-23.542 4.429-34.171 7.553l1.854-0.467c-12.573 3.754-22.92 7.618-32.952 12.063l1.761-0.696c-22.977 9.731-42.798 21.645-60.662 35.908l0.513-0.395c-19.572 14.897-36.741 31.228-51.974 49.248l-0.393 0.478c-7.803 8.581-14.479 19.886-22.282 28.406-6.676 9.953-13.373 21.32-18.944 31.232s-11.141 21.402-15.585 31.232c-4.465 11.366-8.929 21.299-13.373 31.252-6.321 16.49-12.457 36.912-17.223 57.855l-0.616 3.216c-1.106 4.28-2.232 9.953-3.338 14.213s-1.126 9.974-2.253 14.336l-3.338 25.436c-1.106 15.626-2.232 29.819-2.232 41.185 0 18.432 1.126 31.252 1.126 34.099l43.459-56.812 71.311 89.58-155.996 207.319-172.708-200.315 67.973-95.171 47.903 55.296c0-5.673 2.232-21.299 3.338-45.466 2.232-15.626 5.571-32.768 8.909-53.985 2.232-9.953 5.571-21.32 7.803-31.232 1.087-6.519 2.638-12.284 4.681-17.811l-0.216 0.669c2.232-5.673 3.338-11.366 5.571-17.039 9.343-28.264 19.551-52.144 31.475-74.986l-1.308 2.753c6.676-11.366 13.373-24.166 20.050-36.864 7.803-11.366 15.606-24.125 23.388-35.512 8.909-11.366 17.818-22.712 26.747-32.768 9.506-10.627 19.355-20.36 29.772-29.461l0.395-0.338c19.648-17.752 41.539-33.733 64.997-47.304l1.85-0.987c12.288-5.693 23.388-12.861 35.656-17.162 10.529-4.666 22.87-8.593 35.7-11.171l1.164-0.195c9.888-2.645 22.378-5.131 35.096-6.905l1.768-0.202c10.344-1.443 22.564-2.41 34.956-2.677l0.351-0.006h25.62l8.909 1.413c12.216 1.261 23.206 3.26 33.891 6.018l-1.574-0.345c21.431 4.407 40.439 11.272 58.054 20.445l-1.222-0.579c29.336 14.877 54.608 32.372 77.179 52.796l-0.297-0.265zM908.083 438.538v0s-1.106 17.142-4.444 48.292c-2.232 15.626-5.571 32.768-8.909 53.985-5.571 19.886-10.015 42.619-18.944 66.765-9.737 29.344-19.916 53.775-31.625 77.312l1.54-3.42c-6.676 11.366-13.373 24.146-20.050 36.864-7.803 11.346-15.606 24.125-24.576 35.492-9.092 12.094-18.218 22.779-27.953 32.872l0.1-0.104c-4.465 5.693-10.035 9.953-14.479 15.626-4.574 5.366-9.699 10.048-15.347 14.039l-0.259 0.174c-19.375 17.417-41.345 32.552-65.122 44.649l-1.725 0.796-17.777 9.912c-5.571 2.826-12.288 4.28-17.818 7.107l-17.838 7.045c-6.676 1.413-12.288 2.826-18.944 4.28s-12.288 2.847-17.818 4.28c-6.676 1.413-12.288 1.413-18.944 2.826-6.676 0-12.288 1.413-18.944 1.413h-43.459l-8.909-1.413c-11.141-1.413-22.282-4.28-32.317-5.673-22.366-5.996-41.65-13.281-59.99-22.205l1.97 0.865c-17.54-8.6-32.482-17.6-46.572-27.711l0.963 0.657c-13.373-9.892-23.409-18.432-32.215-25.518-8.909-8.581-15.606-14.193-18.944-18.432-2.363-2.212-4.546-4.531-6.576-6.982l-0.101-0.125s2.232 1.413 7.803 5.673c6.271 5.56 13.191 10.715 20.532 15.255l0.645 0.371c9.92 6.983 21.247 13.615 33.118 19.29l1.432 0.616c29.435 15.255 63.757 25.832 100.083 29.709l1.272 0.11c7.669 0.946 16.546 1.485 25.549 1.485 1.984 0 3.962-0.026 5.933-0.078l-0.291 0.006h15.606c5.571-1.413 11.141-1.413 16.712-2.847s11.141-1.413 16.712-2.826 10.035-2.826 15.606-4.28 10.035-2.826 15.606-4.28c5.571-2.847 10.035-4.301 15.544-7.148s11.141-4.28 15.606-7.107l15.606-8.581c5.571-2.826 10.035-5.673 15.606-8.581l14.336-9.789c19.809-15.226 37.323-31.506 53.209-49.273l0.326-0.37c3.876-4.256 7.538-8.893 10.863-13.779l0.279-0.434 11.141-14.213c7.803-9.953 13.373-21.299 20.050-31.252 5.571-9.933 11.141-21.299 16.712-31.252 4.502-8.904 9.025-19.736 12.823-30.905l0.55-1.863c7.046-17.234 13.202-37.692 17.444-58.842l0.373-2.229c3.995-15.424 7.146-33.821 8.813-52.645l0.096-1.34c1.106-15.626 2.232-29.819 2.232-41.185 0-22.733-1.106-36.864-1.106-36.864v-4.28l-44.524 58.307-71.311-89.477 158.208-204.534 172.749 200.172-67.994 95.171z" />
<glyph unicode="&#xe91e;" glyph-name="left-menu-close" d="M67.195 766.321h889.61c0.032 0 0.070 0 0.109 0 36.73 0 66.567 29.515 67.086 66.122l0.001 0.049c-0.577 36.611-30.391 66.069-67.085 66.069-0.039 0-0.077 0-0.116 0h-889.604c-0.033 0-0.071 0-0.11 0-36.694 0-66.508-29.457-67.084-66.014l-0.001-0.054c0.52-36.656 30.356-66.171 67.086-66.171 0.038 0 0.076 0 0.115 0h-0.006zM956.805 514.212h-889.61c-36.545 0-66.171-29.626-66.171-66.171s29.626-66.171 66.171-66.171v0h889.61c36.545 0 66.171 29.626 66.171 66.171s-29.626 66.171-66.171 66.171v0zM956.805 129.782h-889.61c-0.49 0.013-1.068 0.020-1.646 0.020-36.556 0-66.191-29.635-66.191-66.191s29.635-66.191 66.191-66.191c0.579 0 1.156 0.007 1.732 0.022l-0.085-0.002h889.61c0.49-0.013 1.068-0.020 1.646-0.020 36.556 0 66.191 29.635 66.191 66.191s-29.635 66.191-66.191 66.191c-0.579 0-1.156-0.007-1.732-0.022l0.085 0.002z" />
<glyph unicode="&#xe91f;" glyph-name="left-menu-open" d="M67.195 748.81h633.61c0.256-0.004 0.558-0.006 0.861-0.006 36.058 0 65.399 28.762 66.332 64.595l0.002 0.086c-0.991 35.886-30.318 64.599-66.352 64.599-0.296 0-0.592-0.002-0.888-0.006h-633.565c-0.251 0.003-0.547 0.005-0.843 0.005-36.034 0-65.361-28.713-66.35-64.508l-0.002-0.091c0.935-35.92 30.276-64.681 66.334-64.681 0.303 0 0.605 0.002 0.907 0.006h-0.046zM956.785 502.436h-889.59c-0.686 0.026-1.493 0.041-2.302 0.041-35.742 0-64.717-28.975-64.717-64.717s28.975-64.717 64.717-64.717c0.81 0 1.616 0.015 2.418 0.044l-0.116-0.003h889.61c0.686-0.026 1.493-0.041 2.302-0.041 35.742 0 64.717 28.975 64.717 64.717s-28.975 64.717-64.717 64.717c-0.81 0-1.616-0.015-2.418-0.044l0.116 0.003zM700.785 126.73h-633.59c-0.768 0.033-1.669 0.051-2.574 0.051-35.742 0-64.717-28.975-64.717-64.717s28.975-64.717 64.717-64.717c0.905 0 1.806 0.019 2.702 0.055l-0.128-0.004h633.61c0.768-0.033 1.669-0.051 2.574-0.051 35.742 0 64.717 28.975 64.717 64.717s-28.975 64.717-64.717 64.717c-0.905 0-1.806-0.019-2.702-0.055l0.128 0.004z" />
<glyph unicode="&#xe920;" glyph-name="search" d="M433.377 959.816c-0.008 0-0.018 0-0.027 0-239.167 0-433.050-193.883-433.050-433.050s193.883-433.050 433.050-433.050c96.493 0 185.614 31.559 257.606 84.919l-1.169-0.828 222.351-222.679c11.878-11.832 28.263-19.148 46.356-19.148 36.279 0 65.688 29.41 65.688 65.688 0 18.185-7.39 34.644-19.33 46.539l-222.353 222.271c52.537 70.811 84.101 159.925 84.101 256.41 0 239.099-193.828 432.927-432.927 432.927-0.104 0-0.208 0-0.312 0h0.016zM433.377 828.58c166.634-0.070 301.691-135.17 301.691-301.814 0-166.687-135.127-301.814-301.814-301.814s-301.814 135.127-301.814 301.814c0 0.007 0 0.014 0 0.022v-0.001c-0.001 0.274-0.001 0.599-0.001 0.923 0 166.178 134.714 300.892 300.892 300.892 0.368 0 0.735-0.001 1.103-0.002h-0.057z" />
<glyph unicode="&#xe921;" glyph-name="calendar" d="M912.794 842.035h-117.596v72.52c-0.115 25.009-20.323 45.26-45.305 45.445h-55.048c-25.002-0.196-45.207-20.452-45.322-45.455v-71.425h-274.043v71.434c-0.127 25.005-20.328 45.249-45.304 45.445h-55.049c-25.006-0.185-45.219-20.448-45.322-45.456v-71.424h-117.596c-61.984-0.058-112.21-50.32-112.21-112.312 0-0.065 0-0.13 0-0.195v0.010-681.984c0-0.103-0.001-0.226-0.001-0.348 0-61.988 50.228-112.245 112.206-112.292h799.523c62.011 0.023 112.272 50.298 112.272 112.312 0 0.115 0 0.23-0.001 0.346v-0.018 681.984c0 0.079 0 0.173 0 0.266 0 61.384-49.761 111.145-111.145 111.145-0.022 0-0.043 0-0.065 0h0.003zM912.794-1.126h-800.584c-0.043 0-0.093 0-0.144 0-26.739 0-48.415 21.676-48.415 48.415 0 0.101 0 0.202 0.001 0.302v-0.015 531.497h896.614v-531.476c0.009-0.354 0.015-0.77 0.015-1.188 0-26.232-21.258-47.499-47.486-47.514h-0.001zM309.658 480.543h-118.784c-0.006 0-0.014 0-0.021 0-16.050 0-29.061-13.011-29.061-29.061 0-0.058 0-0.115 0.001-0.173v0.009-89.825c0-0.049 0-0.106 0-0.164 0-16.050 13.011-29.061 29.061-29.061 0.029 0 0.058 0 0.087 0h118.78c0.018 0 0.040 0 0.062 0 16.050 0 29.061 13.011 29.061 29.061 0 0.058 0 0.115-0.001 0.173v-0.009 89.825c0 0.049 0 0.106 0 0.164 0 16.050-13.011 29.061-29.061 29.061-0.043 0-0.087 0-0.13 0h0.007zM572.928 480.543h-118.784c-0.024 0-0.053 0-0.082 0-16.050 0-29.061-13.011-29.061-29.061 0-0.058 0-0.115 0.001-0.173v0.009-89.825c0-0.049 0-0.106 0-0.164 0-16.050 13.011-29.061 29.061-29.061 0.029 0 0.058 0 0.087 0h118.78c0.037 0 0.080 0 0.123 0 16.050 0 29.061 13.011 29.061 29.061 0 0.050 0 0.101 0 0.151v-0.008 89.846c0 0.049 0 0.106 0 0.164 0 16.050-13.011 29.061-29.061 29.061-0.043 0-0.087 0-0.13 0h0.007zM837.263 480.543h-118.682c-0.024 0-0.053 0-0.082 0-16.050 0-29.061-13.011-29.061-29.061 0-0.058 0-0.115 0.001-0.173v0.009-89.825c0-0.049 0-0.106 0-0.164 0-16.050 13.011-29.061 29.061-29.061 0.029 0 0.058 0 0.087 0h118.678c16.041 0.011 29.041 13.018 29.041 29.061 0 0.050 0 0.101 0 0.151v-0.008 89.846c0 0.049 0 0.106 0 0.164 0 16.043-13 29.050-29.040 29.061h-0.001zM309.658 242.422h-118.784c-0.006 0-0.014 0-0.021 0-16.050 0-29.061-13.011-29.061-29.061 0-0.058 0-0.115 0.001-0.173v0.009-89.825c0-0.049 0-0.106 0-0.164 0-16.050 13.011-29.061 29.061-29.061 0.029 0 0.058 0 0.087 0h118.78c0.018 0 0.040 0 0.062 0 16.050 0 29.061 13.011 29.061 29.061 0 0.058 0 0.115-0.001 0.173v-0.009 89.825c0 0.049 0 0.106 0 0.164 0 16.050-13.011 29.061-29.061 29.061-0.043 0-0.087 0-0.13 0h0.007zM572.928 242.422h-118.784c-0.024 0-0.053 0-0.082 0-16.050 0-29.061-13.011-29.061-29.061 0-0.058 0-0.115 0.001-0.173v0.009-89.825c0-0.049 0-0.106 0-0.164 0-16.050 13.011-29.061 29.061-29.061 0.029 0 0.058 0 0.087 0h118.78c0.037 0 0.080 0 0.123 0 16.050 0 29.061 13.011 29.061 29.061 0 0.050 0 0.101 0 0.151v-0.008 89.846c0 0.049 0 0.106 0 0.164 0 16.050-13.011 29.061-29.061 29.061-0.043 0-0.087 0-0.13 0h0.007zM837.263 242.422h-118.682c-0.024 0-0.053 0-0.082 0-16.050 0-29.061-13.011-29.061-29.061 0-0.058 0-0.115 0.001-0.173v0.009-89.825c0-0.049 0-0.106 0-0.164 0-16.050 13.011-29.061 29.061-29.061 0.029 0 0.058 0 0.087 0h118.678c16.041 0.011 29.041 13.018 29.041 29.061 0 0.050 0 0.101 0 0.151v-0.008 89.846c0 0.049 0 0.106 0 0.164 0 16.043-13 29.050-29.040 29.061h-0.001z" />
<glyph unicode="&#xe922;" glyph-name="check-mark" d="M367.186 342.938c-49.889 46.735-130.478 132.403-184.197 186.982-53.74 50.627-88.269 7.782-153.6-62.3-72.909-73.994 0-112.947 103.608-218.112l188.027-190.812c69.079-62.321 126.628 31.171 218.726 120.73l376.197 385.495c118.968 116.838 145.818 116.838 49.889 210.289-84.419 89.58-80.589 89.58-214.897-50.606-61.42-58.429-364.564-369.971-383.754-381.665z" />
<glyph unicode="&#xe923;" glyph-name="business-setting" d="M1001.472 698.778h-249.672v153.6c0.009 0.408 0.014 0.888 0.014 1.37 0 35.652-28.469 64.655-63.914 65.516l-0.080 0.002h-351.826c-35.516-0.874-63.973-29.872-63.973-65.517 0-0.482 0.005-0.962 0.016-1.442l-0.001 0.071v-153.6h-249.61c-12.453-0.306-22.431-10.474-22.431-22.972 0-0.168 0.002-0.335 0.005-0.502v0.025-619.602c-0.009-0.37-0.014-0.807-0.014-1.244 0-31.041 24.788-56.293 55.65-57.040l0.069-0.001h639.488c-48.509 45.239-78.75 109.525-78.75 180.873 0 0.492 0.001 0.983 0.004 1.474v-0.075c-0.036 1.536-0.056 3.345-0.056 5.159 0 129.387 103.392 234.627 232.063 237.606l0.277 0.005c70.439-0.289 133.291-32.527 174.853-82.963l0.312-0.39v336.2c0.003 0.142 0.005 0.31 0.005 0.478 0 12.498-9.978 22.666-22.402 22.971l-0.028 0.001zM665.416 698.778h-307.016v130.007h306.954v-130.007zM970.199 264.008l28.959 30.269-58.040 60.785-29.061-30.392c-8.721 5.232-18.789 9.724-29.405 12.957l-0.966 0.253v43.008h-82.432v-43.008c-11.589-3.509-21.655-8-31.010-13.561l0.638 0.351-28.959 30.392-58.143-60.764 29.061-30.269c-4.977-9.081-9.288-19.624-12.381-30.675l-0.256-1.069h-41.165v-86.18h41.165c3.323-12.112 7.636-22.656 13.027-32.526l-0.391 0.782-29.061-30.392 58.143-60.764 28.959 30.392c8.706-5.123 18.769-9.577 29.356-12.838l1.016-0.269v-43.049h82.452v43.008c11.595 3.505 21.661 7.961 31.035 13.467l-0.663-0.36 29.061-30.392 58.040 60.764-28.959 30.372c4.912 9.070 9.187 19.613 12.273 30.652l0.261 1.092h41.165v86.241h-41.165c-3.38 12.134-7.661 22.667-12.968 32.568l0.413-0.844zM840.52 89.928c-1.314-0.062-2.855-0.098-4.403-0.098-54.891 0-99.389 44.498-99.389 99.389s44.498 99.389 99.389 99.389c54.891 0 99.389-44.498 99.389-99.389 0-0.002 0-0.003 0-0.005v0c0.016-0.654 0.025-1.423 0.025-2.195 0-52.912-42.279-95.949-94.897-97.171l-0.114-0.002zM840.52 240.271c-0.691 0.033-1.5 0.052-2.314 0.052-28.198 0-51.057-22.859-51.057-51.057s22.859-51.057 51.057-51.057c28.179 0 51.027 22.829 51.057 51.001v0.003c0.007 0.309 0.011 0.673 0.011 1.038 0 27.166-21.686 49.267-48.691 49.935l-0.062 0.001z" />
<glyph unicode="&#xe924;" glyph-name="delete" d="M143.36 79.36c2.625-79.308 67.259-142.675 146.826-143.257h469.621c0.018 0 0.040 0 0.062 0 77.994 0 141.245 63.122 141.455 141.067v0.020l-0.205 613.335h-757.76v-611.164zM251.617 582.738h541.245l4.198-503.378c0.018-0.447 0.028-0.972 0.028-1.499 0-21.807-17.678-39.485-39.485-39.485-0.493 0-0.983 0.009-1.471 0.027l0.071-0.002h-469.852c-0.854-0.071-1.849-0.111-2.854-0.111-20.258 0-36.68 16.422-36.68 36.68 0 0.788 0.025 1.571 0.074 2.347l-0.005-0.106zM839.68 917.361h-159.928c-3.371 24.084-23.835 42.417-48.581 42.417-0.201 0-0.401-0.001-0.601-0.004h-211.426c-0.17 0.002-0.37 0.003-0.571 0.003-24.746 0-45.211-18.333-48.552-42.159l-0.030-0.259h-159.744c-0.63 0.022-1.369 0.034-2.112 0.034-34.063 0-62.005-26.209-64.76-59.561l-0.016-0.234v-59.29h757.76l0.143 57.569c0 33.932-27.508 61.44-61.44 61.44v0h-0.143zM359.793 474.993h108.257v-323.42h-108.196v323.379zM576.287 474.993h108.257v-323.42h-108.175v323.379z" />
<glyph unicode="&#xe925;" glyph-name="manage" d="M628.326 771.133c0.001 0.159 0.001 0.348 0.001 0.537 0 58.816-47.68 106.496-106.496 106.496-1.506 0-3.004-0.031-4.495-0.093l0.213 0.007c-1.944 0.129-4.213 0.203-6.5 0.203-57.583 0-104.264-46.68-104.264-104.264 0-0.856 0.010-1.71 0.031-2.561l-0.002 0.126c0-225.28 222.351-222.003 221.491-0.532v0zM271.319 444.805c3.892 26.763 11.916 50.912 23.468 72.918l-0.592-1.238c23.224 42.639 68.301 81.777 120.648 81.777h11.264l71.086-103.158 1.126 52.634-11.325 13.496 30.536 21.32 30.556-21.32-11.346-13.496 1.126-52.634 71.168 103.076h11.244c52.265 0 97.26-39.014 120.525-81.531 11.064-20.828 19.166-45.050 22.952-70.678l0.149-1.228-9.318-15.462c-50.359-79.127-137.605-130.863-236.933-130.863s-186.574 51.736-236.259 129.73l-0.674 1.132-9.339 15.462zM851.968 347.853l-38.707 21.443c-61.88-85.754-158.995-142.768-269.69-149.718l-1.035-0.052v-55.706c-7.504 1.964-16.118 3.091-24.996 3.091s-17.492-1.127-25.708-3.247l0.712 0.156v55.706c-111.708 7.036-208.804 64.013-269.999 148.654l-0.726 1.055-48.067-26.624c-4.793 16.327-13.456 30.269-24.952 41.276l-0.034 0.032 90.542 50.094 12.452-20.644c55.367-88.718 152.453-146.874 263.121-146.874 0.938 0 1.875 0.004 2.811 0.013l-0.143-0.001c0.79-0.007 1.723-0.011 2.658-0.011 110.663 0 207.75 58.126 262.395 145.513l0.757 1.299 12.513 20.746 83.64-46.326c-12.292-10.481-21.76-23.918-27.339-39.225l-0.207-0.649zM79.483 393.994c0.985 0.046 2.14 0.072 3.301 0.072 41.997 0 76.042-34.045 76.042-76.042s-34.045-76.042-76.042-76.042c-1.161 0-2.316 0.026-3.464 0.077l0.163-0.006c-0.985-0.046-2.14-0.072-3.301-0.072-41.997 0-76.042 34.045-76.042 76.042s34.045 76.042 76.042 76.042c1.161 0 2.316-0.026 3.464-0.077l-0.163 0.006zM517.571 149.361c40.572-1.793 72.786-35.121 72.786-75.972 0-41.997-34.045-76.042-76.042-76.042s-76.042 34.045-76.042 76.042c0 0.004 0 0.009 0 0.013v-0.001c1.033 42.179 35.471 75.976 77.802 75.976 0.555 0 1.109-0.006 1.661-0.017l-0.082 0.001zM944.62 393.994c40.536-1.836 72.704-35.146 72.704-75.969 0-41.997-34.045-76.042-76.042-76.042-41.993 0-76.036 34.039-76.042 76.030v0.001c1.022 42.188 35.464 75.997 77.803 75.997 0.555 0 1.108-0.006 1.66-0.017l-0.082 0.001z" />
<glyph unicode="&#xe926;" glyph-name="pagination-next" d="M225.28-63.877l594.043 511.877-594.043 511.754v-1023.631z" />
<glyph unicode="&#xe927;" glyph-name="pagination-previous" d="M819.2-63.877l-594.043 511.877 594.043 511.754v-1023.631z" />
<glyph unicode="&#xe928;" glyph-name="dollar" d="M462.213-64.307l61.092 6.144c11.881 0.75 22.295 6.459 29.289 15.060l0.059 0.075c6.493 7.659 10.513 17.594 10.731 28.462l0.001 0.046-0.184 67.85c40.428 6.738 76.659 19.869 109.403 38.435l-1.638-0.854c29.824 16.962 55.007 38.444 75.553 63.833l0.387 0.494c19.012 23.803 33.66 52.016 42.189 82.773l0.389 1.645c5.838 20.907 9.194 44.915 9.194 69.707 0 9.9-0.535 19.675-1.578 29.298l0.105-1.192c-1.874 21.962-7.036 42.232-15.011 61.020l0.49-1.3c-7.392 17.206-16.963 31.996-28.594 44.891l0.126-0.142c-11.31 12.39-24.275 23.002-38.607 31.56l-0.776 0.429c-13.353 8.011-28.88 15.506-45.093 21.599l-2.011 0.663c-13.637 5.281-30.855 10.622-48.48 14.927l-3.089 0.638q-26.624 6.349-53.043 11.325v193.024c12.785-2.381 23.693-5.217 34.3-8.718l-1.839 0.526 28.774-9.38q13.414-4.383 24.576-7.086c4.592-1.285 9.866-2.024 15.312-2.024 1.53 0 3.047 0.058 4.548 0.173l-0.199-0.012c8.227 0.594 15.651 3.613 21.672 8.339l-0.086-0.065c6.748 5.955 12.303 13.079 16.382 21.082l0.186 0.402 34.816 63.795c-21.935 16.806-46.853 31.666-73.423 43.486l-2.353 0.935c-30.216 13.309-65.274 22.198-102.066 24.805l-1.010 0.057 0.492 107.254-61.092-6.144c-11.913-0.764-22.337-6.557-29.264-15.257l-0.064-0.083c-6.504-7.811-10.512-17.9-10.69-28.92v-61.377c-40.136-3.317-76.965-14.673-109.809-32.451l1.469 0.727c-29.679-16.141-54.839-36.617-75.661-60.919l-0.299-0.357c-18.654-21.9-33.344-47.83-42.56-76.226l-0.448-1.598c-6.331-19.243-9.983-41.391-9.983-64.392 0-7.225 0.36-14.366 1.064-21.406l-0.072 0.888c2.291-35.017 12.564-67.197 29.001-95.337l-0.554 1.027c14.452-23.484 33.115-42.964 55.11-57.906l0.657-0.421c20.803-13.919 44.914-25.1 70.702-32.25l1.756-0.415q39.465-10.834 79.114-17.818l0.123-205.517c-16.717 2.645-31.679 6.89-45.848 12.679l1.365-0.493q-19.743 8.192-36.495 16.241t-30.72 13.537c-6.513 2.721-14.081 4.301-22.018 4.301-1.722 0-3.427-0.074-5.111-0.22l0.219 0.015c-8.598-0.865-16.346-3.921-22.853-8.595l0.141 0.096c-6.524-4.47-11.864-10.183-15.779-16.835l-0.134-0.246-44.114-79.872c28.805-21.719 62.172-39.476 98.143-51.564l2.475-0.722c35.627-12.628 76.879-21.249 119.71-24.092l1.408-0.075zM563.323 190.362l-0.266 179.405c20.879-5.333 39.164-14.146 55.165-25.889l-0.442 0.31c14.098-11.191 23.339-27.976 24.344-46.944l0.007-0.16q8.069-82.391-78.807-106.742v0zM382.976 650.158c2.686 9.423 7.17 17.587 13.096 24.476l-0.071-0.084c7.148 8.136 15.631 14.893 25.141 19.98l0.48 0.234c11.625 6.256 25.103 11.458 39.267 14.912l1.181 0.243-0.123-164.229c-21.453 6.038-40.147 15.612-56.413 28.175l0.379-0.282c-14.48 11.935-23.968 29.475-25.12 49.253l-0.009 0.186c-0.251 2.296-0.393 4.96-0.393 7.657 0 6.929 0.944 13.638 2.709 20.004l-0.124-0.525z" />
<glyph unicode="&#xe929;" glyph-name="edit" d="M1000.673 915.763c14.13-15.043 22.811-35.349 22.811-57.682s-8.681-42.638-22.852-57.726l0.041 0.045-36.741-38.441-110.285 115.364 36.741 38.441c13.826 14.719 33.414 23.887 55.142 23.887s41.316-9.168 55.105-23.847l0.037-0.040zM449.516 454.328l-36.721-153.784 146.964 38.441 367.411 384.512-110.264 115.384zM819.2 386.56v-348.16h-716.8v757.76h471.040v102.4h-573.44v-962.56h921.477l0.123 450.56h-102.4z" />
<glyph unicode="&#xe92a;" glyph-name="get-access" d="M617.206 527.872c39.419 17.268 85.359 27.324 133.646 27.341h14.22c13.813 35.709 21.816 77.032 21.816 120.224 0 22.34-2.141 44.18-6.229 65.325l0.346-2.151c-21.689 126.094-130.216 220.824-260.868 220.824-15.476 0-30.641-1.329-45.388-3.879l1.575 0.225-1.29-0.225c-143.258-25.641-265.032-137.851-239.514-280.801 8.788-42.993 22.147-81.093 39.892-116.62l-1.225 2.71-260.977-381.133c-8.288-13.052-13.209-28.95-13.209-45.997 0-3.863 0.253-7.667 0.742-11.397l-0.047 0.439 11.366-64.287c-10.813 62.075 3.42-22.221 11.366-22.221h86.467c19.159 4.679 35.17 15.89 45.915 31.088l0.165 0.246 103.506 161.792 89.866-6.84 121.692 189.645c11.361 15.367 23.114 28.939 35.819 41.554l0.021 0.020c30.335 31.006 66.623 56.048 107.034 73.296l2.165 0.822h1.126zM69.509 140.493l-12.513-5.693v14.193l250.204 363.418 14.787-14.336zM449.434 809.165c22.558 33.276 60.194 54.855 102.87 54.855 25.8 0 49.757-7.887 69.593-21.38l-0.431 0.277q2.048-1.434 4.239-2.99c32.358-23.461 53.16-61.143 53.16-103.684 0-27.023-8.394-52.085-22.717-72.722l0.277 0.421c-39.813-56.955-80.2-16.527-136.499 23.347s-109.732 64.348-70.492 121.876zM748.032 485.069c-151.504-0.483-274.135-123.412-274.135-274.984 0-151.87 123.115-274.985 274.985-274.985s274.985 123.115 274.985 274.985c0 151.571-122.631 274.5-274.089 274.984h-1.746zM906.138 97.792c0-40.448-78.5-50.115-151.859-50.115s-152.986 9.667-152.986 50.115v11.366c0 30.188 54.026 60.948 100.086 77.455 8.246 3.63 13.899 11.729 13.899 21.149 0 4.628-1.365 8.937-3.713 12.548l0.054-0.089c-24.223 25.73-39.293 60.315-39.873 98.414l-0.001 0.115c-0.183 2.058-0.287 4.452-0.287 6.871 0 45.549 36.924 82.473 82.473 82.473s82.473-36.924 82.473-82.473c0-2.419-0.104-4.813-0.308-7.179l0.021 0.308c-0.553-38.574-15.59-73.531-39.902-99.773l0.089 0.097c-9.093-26.767 5.12-33.034 7.393-33.608 48.333-15.954 102.953-46.141 102.953-77.455z" />
<glyph unicode="&#xe92b;" glyph-name="get-link" d="M814.182 922.665c-23.25 23.426-55.463 37.927-91.064 37.927-35.295 0-67.261-14.254-90.456-37.319l-0.608-0.608-189.46-188.416c-23.41-23.285-37.897-55.519-37.897-91.136 0-35.312 14.24-67.298 37.291-90.529l0.606-0.606c8.997-10.051 22.011-16.348 36.495-16.348 27.013 0 48.911 21.898 48.911 48.911 0 12.528-4.71 23.956-12.457 32.61l0.041-0.047q-1.577 1.761-3.318 3.379c-5.768 5.572-9.35 13.376-9.35 22.017 0 8.243 3.26 15.725 8.56 21.226l189.021 189.206c5.699 5.481 13.458 8.858 22.006 8.858s16.306-3.376 22.016-8.867l172.35-172.473c5.774-5.573 9.36-13.381 9.36-22.026 0-8.248-3.264-15.734-8.57-21.237l-189.042-189.185c-5.699-5.481-13.458-8.858-22.006-8.858s-16.306 3.376-22.016 8.867l0.010-0.010c-8.717 7.931-20.353 12.787-33.124 12.787-27.225 0-49.295-22.070-49.295-49.295 0-12.771 4.856-24.408 12.823-33.164l-0.036 0.040c23.247-23.431 55.462-37.936 91.064-37.936 35.297 0 67.264 14.257 90.456 37.327l190.069 190.212c23.414 23.282 37.906 55.517 37.906 91.136 0 35.314-14.244 67.301-37.299 90.529l-0.606 0.606zM210.33-26.644c23.25-23.426 55.463-37.927 91.064-37.927 35.295 0 67.261 14.254 90.456 37.319l0.608 0.608 189.46 188.416c23.408 23.281 37.895 55.512 37.895 91.126 0 35.309-14.24 67.292-37.289 90.519l-0.606 0.606-69.632-68.506c5.768-5.572 9.35-13.376 9.35-22.017 0-8.243-3.26-15.725-8.56-21.226l-189.021-189.206c-5.566-5.772-13.367-9.356-22.006-9.356-8.241 0-15.72 3.262-21.216 8.566l-173.17 173.293c-5.768 5.572-9.35 13.376-9.35 22.017 0 8.243 3.26 15.725 8.56 21.226l-0.009-0.009 0.799 0.778 188.232 188.416c5.566 5.772 13.367 9.356 22.006 9.356 8.241 0 15.72-3.262 21.216-8.566l-0.009 0.009 0.86-0.799c8.758-8.118 20.525-13.098 33.455-13.098 27.214 0 49.275 22.061 49.275 49.275 0 12.93-4.98 24.697-13.127 33.487l0.029-0.032c-23.247 23.431-55.462 37.936-91.064 37.936-35.297 0-67.264-14.257-90.456-37.327l-190.089-190.13c-23.414-23.282-37.906-55.517-37.906-91.136 0-35.314 14.244-67.301 37.299-90.529l0.606-0.606zM300.79 236.38c8.868-9.018 21.199-14.606 34.836-14.606 13.372 0 25.489 5.374 34.31 14.079l0.527 0.527 367.923 369.439c9.95 9.053 16.171 22.054 16.171 36.508 0 27.225-22.070 49.295-49.295 49.295-14.454 0-27.455-6.221-36.472-16.131l-0.036-0.040-367.923-370.688c-8.622-8.816-13.942-20.893-13.942-34.212 0-13.299 5.304-25.359 13.911-34.18l-0.010 0.010z" />
<glyph unicode="&#xe92c;" glyph-name="stats" d="M573.44 120.32h122.88v471.040h-122.88v-471.040zM327.68 120.32h122.88v798.72h-122.88v-798.72zM102.4 120.32h122.88v634.88h-122.88v-634.88zM1024 79.36h-1024l0.123-122.675h1023.57zM798.72 140.8h122.88v675.84h-122.88v-675.84z" />
<glyph unicode="&#xe92d;" glyph-name="view" d="M620.196 437.76c-1.657-56.799-48.096-102.212-105.143-102.212-0.987 0-1.971 0.014-2.951 0.041l0.144-0.003c-0.842-0.024-1.833-0.038-2.827-0.038-57.047 0-103.487 45.414-105.14 102.060l-0.004 0.152c1.656 56.799 48.096 102.213 105.143 102.213 0.994 0 1.985-0.014 2.973-0.041l-0.145 0.003c0.836 0.024 1.82 0.037 2.807 0.037 57.047 0 103.487-45.413 105.14-102.060l0.004-0.152zM512.225 244.285c-1.585-0.045-3.451-0.071-5.322-0.071-108.020 0-195.956 85.994-199.082 193.257l-0.007 0.289c3.144 107.543 91.075 193.525 199.088 193.525 1.872 0 3.737-0.026 5.597-0.077l-0.274 0.006c1.592 0.046 3.464 0.072 5.343 0.072 108.013 0 195.945-85.983 199.081-193.237l0.007-0.289c-3.133-107.552-91.068-193.546-199.089-193.546-1.879 0-3.751 0.026-5.618 0.078l0.275-0.006zM512.225 726.508c-282.788 0-512-287.334-512-287.334s229.151-290.181 512.020-290.181 512 290.181 512 290.181-229.233 287.334-512 287.334z" />
<glyph unicode="&#xe92e;" glyph-name="article-install" d="M389.12 734.72v-102.4h-143.36v-143.36h-102.4v143.36h-143.36v102.4h143.36v143.36h102.4v-143.36h143.36zM430.080 181.76c0-1.331 1.311 0 0 0h-102.4c-1.311 0 0-1.331 0 0v204.8c3.069 0.305 6.634 0.48 10.24 0.48s7.17-0.174 10.687-0.515l-0.447 0.035h81.92c1.311 0 0.43 0 0 0v-204.8zM634.88 243.2c0-1.331 1.311-61.44 0-61.44h-102.4c-1.311 0 0-1.331 0 0v184.32c0.492 1.27-0.819 20.48 0 20.48h102.4c1.311 0 0 2.048 0 0v-143.36zM839.68 202.24c0-1.331-0.307-24.576 0-20.48h-102.4c0.288 3.068 0.452 6.635 0.452 10.24s-0.164 7.172-0.485 10.693l0.033-0.453v122.88c0 1.27-1.311 61.44 0 61.44h81.92c1.331 0 20.48-0.328 20.48 0v-184.32zM839.68 468.48c1.618-0.553-19.19 0-20.48 0h-491.52c-1.311 0-0.492-0.348 0 0v61.44c0 1.27-1.311 40.96 0 40.96h512c-0.328 0 0-39.69 0-40.96v-61.44zM491.52 734.72v-102.4h430.080v-512h-675.84v286.72h-102.4v-389.12h880.64v716.8h-532.48z" />
<glyph unicode="&#xe92f;" glyph-name="autoresponder" d="M994.222 566.252c0.005 0 0.012 0 0.018 0 8.18 0 15.601 3.249 21.043 8.527l-0.008-0.007c5.34 5.203 8.669 12.447 8.724 20.47v46.848c-0.207 16.073-13.284 29.023-29.387 29.023-0.13 0-0.261-0.001-0.391-0.003h-3.38q-2.519 6.656-5.612 13.128l2.396 2.355c5.369 5.182 8.704 12.441 8.704 20.48s-3.334 15.298-8.695 20.472l-0.008 0.008-33.997 33.116c-5.444 5.256-12.865 8.495-21.043 8.495s-15.6-3.239-21.052-8.504l0.009 0.008-2.417-2.355c-4.403 2.048-8.888 3.871-13.455 5.489v3.359c-0.229 16.066-13.307 29.003-29.406 29.003-0.145 0-0.29-0.001-0.434-0.003h-48.045c-0.11 0.001-0.241 0.002-0.371 0.002-16.095 0-29.168-12.938-29.386-28.981v-3.359c-4.567-1.577-9.052-3.42-13.455-5.427l-2.478 2.355c-5.442 5.261-12.864 8.503-21.043 8.503s-15.602-3.242-21.052-8.511l0.009 0.008-34.058-33.137c-5.364-5.184-8.695-12.443-8.695-20.48s3.331-15.296 8.687-20.472l2.425-2.425c-2.048-4.321-3.973-8.684-5.591-13.148h-3.379c-0.012 0-0.025 0-0.039 0-8.17 0-15.582-3.241-21.022-8.507l0.008 0.008c-5.356-5.192-8.691-12.444-8.724-20.474v-46.864c0.23-16.066 13.307-29.002 29.406-29.002 0.123 0 0.247 0.001 0.37 0.002h3.401c1.679-4.424 3.523-8.827 5.612-13.107l-2.396-2.376c-5.369-5.182-8.704-12.441-8.704-20.48s3.334-15.298 8.695-20.472l0.008-0.008 33.997-33.157c5.449-5.253 12.873-8.489 21.053-8.489s15.605 3.236 21.063 8.498l-0.009-0.009 2.396 2.335c4.424-2.048 8.95-3.83 13.517-5.468v-3.297c0.218-16.064 13.291-29.002 29.386-29.002 0.131 0 0.261 0.001 0.391 0.003h48.088c0.11-0.001 0.241-0.002 0.371-0.002 16.088 0 29.156 12.927 29.386 28.96v3.34c4.588 1.577 9.073 3.441 13.496 5.468l2.396-2.314c5.444-5.256 12.865-8.495 21.043-8.495s15.6 3.239 21.052 8.504l-0.009-0.008 34.038 33.157c5.359 5.187 8.686 12.445 8.686 20.48s-3.327 15.293-8.678 20.473l-0.008 0.007-2.458 2.355c1.716 3.383 3.6 7.713 5.268 12.149l0.323 0.979h3.4zM904.499 715.756l-38.81-37.827c-7.077 2.768-15.27 4.372-23.839 4.372s-16.762-1.604-24.297-4.529l0.458 0.156-38.81 37.806c17.861 11.030 39.511 17.565 62.689 17.565 23.136 0 44.75-6.512 63.111-17.803l-0.523 0.299zM742.154 557.568c-11.273 17.246-17.98 38.365-17.98 61.051s6.706 43.805 18.245 61.483l-0.265-0.433 38.789-37.806c-2.821-6.881-4.458-14.866-4.458-23.235s1.637-16.354 4.61-23.654l-0.151 0.42zM779.203 521.503l38.81 37.827c7.077-2.768 15.27-4.372 23.839-4.372s16.762 1.604 24.297 4.529l-0.458-0.156 38.789-37.806c-17.846-11-39.473-17.517-62.621-17.517-23.162 0-44.801 6.525-63.177 17.837l0.522-0.299zM941.486 557.568l-38.789 37.888c2.834 6.879 4.479 14.865 4.479 23.235s-1.645 16.356-4.63 23.652l0.151-0.417 38.81 37.806c11.281-17.238 17.993-38.353 17.993-61.035 0-22.695-6.719-43.821-18.277-61.497l0.264 0.43zM927.519 416.973c-10.619-11.6-24.408-20.136-39.994-24.242l-0.577-0.129v-201.032c-0.087-4.881-1.359-9.445-3.537-13.445l0.076 0.153-221.983 216.33 39.67 38.666c-3.064 2.281-5.77 4.583-8.318 7.047l0.023-0.022-34.017 33.178c-0.84 0.819-1.659 1.679-2.458 2.519l-171.848-167.26c-2.542-2.336-5.947-3.768-9.687-3.768s-7.145 1.432-9.697 3.777l0.010-0.009-344.576 335.729h486.543c0.771 21.362 9.816 40.473 24.008 54.339l0.015 0.015q1.761 1.7 3.604 3.297c0 1.147 0 2.294-0.102 3.441h-540.467c-0.332 0.004-0.724 0.007-1.117 0.007-50.917 0-92.288-40.874-93.090-91.6l-0.001-0.075v-422.277c0.746-50.846 42.139-91.778 93.093-91.778 0.392 0 0.784 0.002 1.175 0.007l-0.059-0.001h761.324c0.332-0.004 0.723-0.007 1.115-0.007 50.953 0 92.346 40.932 93.092 91.707l0.001 0.070v227.021c-5.147-1.107-11.061-1.741-17.122-1.741-0.007 0-0.014 0-0.021 0h0.001q-2.58-0.020-5.1 0.123zM66.212 178.319c-2.082 3.85-3.338 8.415-3.42 13.266v422.302c0 0.123 0 0.205 0 0.328l225.28-219.587zM137.216 161.014l195.338 190.341 88.166-86.016c13.983-13.53 33.062-21.868 54.088-21.868s40.104 8.338 54.109 21.888l-0.021-0.021 88.187 86.016 195.318-190.341h-675.185z" />
<glyph unicode="&#xe930;" glyph-name="crm" d="M962.56 263.68v532.48h-901.12v-532.48h-61.44v-184.32h1024v184.32h-61.44zM122.88 734.72h778.24v-471.040h-778.24v471.040zM962.56 140.8h-901.12v61.44h901.12v-61.44zM351.048 478.904c-1.581-4.257-3.87-7.909-6.755-10.996l0.017 0.019c-2.735-2.882-5.903-5.318-9.407-7.213l-0.198-0.098c-3.206-1.764-6.921-3.176-10.84-4.044l-0.28-0.052c-3.382-0.759-7.269-1.199-11.257-1.208h-0.007c-0.256-0.006-0.557-0.009-0.859-0.009-6.533 0-12.712 1.515-18.205 4.213l0.243-0.108c-5.602 2.805-10.315 6.588-14.093 11.17l-0.059 0.073c-3.763 4.608-6.758 10.016-8.686 15.908l-0.1 0.353c-1.922 5.683-3.031 12.227-3.031 19.031 0 0.077 0 0.155 0 0.232v-0.012c0.017 6.428 0.966 12.629 2.719 18.482l-0.118-0.459c1.774 6.212 4.503 11.63 8.061 16.393l-0.094-0.131c3.657 4.827 8.245 8.748 13.521 11.546l0.221 0.107c5.472 2.824 11.943 4.479 18.801 4.479 0.389 0 0.776-0.005 1.162-0.016l-0.057 0.001c4.045-0.018 7.986-0.412 11.805-1.149l-0.398 0.064c4.289-0.803 8.112-2.117 11.657-3.903l-0.249 0.114c3.868-1.949 7.176-4.393 10.007-7.303l0.008-0.008c3.099-3.247 5.568-7.126 7.193-11.419l0.078-0.234 40.96 28.672c-7.223 13.021-17.766 23.432-30.502 30.297l-0.402 0.198c-13.473 7.27-29.489 11.542-46.502 11.542-0.888 0-1.774-0.012-2.657-0.035l0.13 0.003c-0.662 0.016-1.441 0.025-2.223 0.025-27.886 0-53.068-11.575-71.005-30.182l-0.029-0.030c-16.208-16.958-26.225-39.952-26.358-65.285v-0.026c0.036-13.097 2.659-25.573 7.384-36.955l-0.237 0.644c4.984-12.358 11.806-22.96 20.251-32.032l-0.057 0.062c8.634-9.281 18.924-16.886 30.421-22.37l0.607-0.261c11.31-5.396 24.581-8.547 38.588-8.547 0.388 0 0.775 0.002 1.161 0.007l-0.059-0.001c9.035 0.042 17.794 1.129 26.192 3.148l-0.776-0.158c9.276 2.12 17.434 5.106 25.074 8.968l-0.621-0.285c7.778 3.899 14.466 8.598 20.362 14.132l-0.045-0.042c5.618 5.202 10.123 11.519 13.176 18.608l0.136 0.356zM540.836 480.809c8.691 6.098 15.665 14.068 20.435 23.356l0.168 0.36c4.674 8.959 7.415 19.566 7.415 30.813 0 0.169-0.001 0.337-0.002 0.506v-0.026c-0.042 8.763-1.853 17.091-5.093 24.662l0.158-0.414c-3.407 8.262-7.994 15.353-13.641 21.448l0.042-0.046c-5.788 6.198-12.664 11.293-20.337 14.998l-0.409 0.178c-7.539 3.672-16.401 5.819-25.765 5.819-0.216 0-0.431-0.001-0.646-0.003h-89.465v-192.512h53.555v59.208h20.050l34.324-59.085h60.416zM510.116 520.643c-2.004-3.083-5.332-5.16-9.158-5.425l-0.037-0.002h-33.792v41.206h32.584c4.027-0.314 7.535-2.299 9.87-5.255l0.022-0.029c3.104-3.715 4.989-8.542 4.989-13.809 0-0.531-0.019-1.058-0.057-1.58l0.004 0.070c0.025-0.411 0.039-0.89 0.039-1.374 0-5.169-1.633-9.958-4.411-13.877l0.050 0.075zM741.786 602.563l-42.291-90.522-42.025 90.522h-58.409v-192.512h53.555v101.437l32.768-71.27h28.57l32.768 71.27v-101.356h53.555v192.512h-58.388z" />
<glyph unicode="&#xe931;" glyph-name="webinar" d="M1011.61 198.144l-118.292 86.016v473.539c-0.009 21.037-16.898 38.127-37.857 38.461h-48.261l-280.187-1.229h-359.424c-20.969-0.334-37.844-17.389-37.888-38.396v-471.167l-117.125-87.224c-7.917-11.868-12.634-26.459-12.634-42.152 0-42.043 33.856-76.179 75.792-76.632h872.716c41.911 0.685 75.623 34.821 75.623 76.831 0 15.603-4.651 30.121-12.642 42.241l0.179-0.288zM533.893 774.001c0.111 0.010 0.239 0.016 0.37 0.016 2.341 0 4.239-1.898 4.239-4.239 0-0.15-0.008-0.298-0.023-0.444l0.002 0.018c-0.071-1.246-1.052-2.241-2.285-2.334l-0.008-0.001c-0.108-0.010-0.235-0.015-0.362-0.015-2.341 0-4.239 1.898-4.239 4.239 0 0.121 0.005 0.24 0.015 0.359l-0.001-0.015c0.029 1.281 1.025 2.32 2.285 2.416l0.008 0.001zM499.446 774.001c1.128 5.19 5.089 9.226 10.147 10.446l0.093 0.019c0.647 0.114 1.392 0.18 2.153 0.18 7.171 0 12.984-5.813 12.984-12.984 0-0.816-0.075-1.615-0.219-2.39l0.012 0.080c-1.128-5.19-5.089-9.226-10.147-10.446l-0.093-0.019c-0.797-0.179-1.711-0.282-2.65-0.282-6.956 0-12.595 5.639-12.595 12.595 0 0.993 0.115 1.959 0.332 2.886l-0.017-0.085zM182.518 455.229v267.571c0 0.025 0 0.054 0 0.083 0 12.725 10.252 23.055 22.946 23.182h602.882c17.778-0.092 32.155-14.526 32.155-32.317 0-0.094 0-0.187-0.001-0.281v0.014-409.6h-126.321c-11.752 67.636-55.477 123.010-114.727 150.719l-1.251 0.526c26.543 22.538 43.274 55.934 43.274 93.238 0 67.424-54.658 122.081-122.081 122.081s-122.081-54.658-122.081-122.081c0-0.005 0-0.009 0-0.014v0.001c-0.005-0.393-0.007-0.858-0.007-1.323 0-35.521 15.493-67.424 40.090-89.319l0.12-0.105c-62.637-27.923-108.15-84.355-120.379-152.345l-0.187-1.255h-134.431v151.224zM947.302 132.956h-871.526c-12.863 0.056-23.268 10.497-23.268 23.367 0 4.72 1.399 9.113 3.806 12.787l-0.055-0.089 113.725 80.323h681.984l113.684-80.282c2.843-3.73 4.554-8.456 4.554-13.581 0-12.442-10.086-22.528-22.528-22.528-0.132 0-0.264 0.001-0.396 0.003h0.020zM827.863 224.768h-631.562l-53.985-43.008c-2.344-1.65-3.857-4.344-3.857-7.391 0-4.977 4.034-9.011 9.011-9.011 0.204 0 0.407 0.007 0.607 0.020l-0.027-0.001h729.088c5.065 0.033 9.158 4.146 9.158 9.216 0 2.888-1.328 5.465-3.407 7.155l-0.017 0.013z" />
<glyph unicode="&#xe932;" glyph-name="advertisment" d="M703.857 518.595l2.048-102.4c23.148 4.718 40.321 24.911 40.321 49.115 0 0.452-0.006 0.903-0.018 1.353l0.001-0.066c-0.832 25.222-18.433 46.11-41.973 51.919l-0.38 0.079zM675.84 734.72h-20.48v-532.48h20.48v532.48zM423.404 599.716c-29.557-8.077-64.326-14.086-100.012-16.818l-1.938-0.119 4.424-215.634c38.593-4.486 73.406-11.86 106.965-22.105l-4.238 1.113c29.131-8.542 53.058-17.314 76.28-27.406l-4.191 1.622c0.676-0.13 1.275-0.387 1.798-0.748l-0.016 0.010c50.574-20.841 94.224-46.512 133.63-77.356l-1.226 0.925v450.56c-59.984-43.518-130.909-76.157-207.673-93.329l-3.803-0.715zM259.4 346.092l0.901-44.401 43.438-0.86-0.901 44.401zM298.066 582.431l-192.41 3.707c-0.965 0.033-2.1 0.051-3.239 0.051-56.724 0-102.707-45.984-102.707-102.707 0-0.774 0.009-1.546 0.026-2.316l-0.002 0.115c0.794-29.95 13.361-56.818 33.22-76.269l0.019-0.019c19.836-19.644 46.906-32.015 76.863-32.765l192.367-3.71zM237.036 290.611l-1.126 55.931-113.725 2.253 3.441-170.455c0.022-0.132 0.035-0.285 0.035-0.44s-0.013-0.308-0.037-0.457l0.002 0.016c0.067-1.023 0.183-1.958 0.35-2.874l-0.023 0.15c-0.023-0.132-0.036-0.285-0.036-0.44s0.013-0.308 0.038-0.456l-0.002 0.016 0.614-2.601c-0.041-0.060-0.065-0.135-0.065-0.215s0.024-0.155 0.066-0.216l-0.001 0.001c3.451-13.61 14.005-24.103 27.39-27.41l0.258-0.054c0.092-0.018 0.199-0.029 0.307-0.029s0.215 0.010 0.318 0.030l-0.010-0.002c0.689-0.181 1.563-0.353 2.453-0.477l0.127-0.014c0.369 0 0.614 0 0.983-0.123 0.771-0.143 1.659-0.225 2.565-0.225 0.027 0 0.054 0 0.081 0h-0.004c0.135-0.021 0.292-0.033 0.451-0.033s0.315 0.012 0.468 0.035l-0.017-0.002 78.131-1.72-3.031 149.647v0.164zM1024 458.076h-234.721v42.23h234.721v-42.25zM797.983 539.32l-17.388 38.605 214.385 94.618 17.388-38.605zM995 285.839l-214.405 94.577 17.388 38.584 214.405-94.597z" />
<glyph unicode="&#xe933;" glyph-name="slider-1" d="M327.066 816.64v-737.28h356.168v737.28h-356.168zM592.282 319.508h-142.479v32.768h52.204v149.668c0 5.878 0.143 11.878 0.41 18.309l-36.987-30.863c-1.306-1.164-2.852-2.091-4.552-2.694l-0.097-0.030c-1.428-0.396-3.074-0.641-4.771-0.676h-0.021c-0.017 0-0.036 0-0.056 0-2.323 0-4.516 0.552-6.456 1.533l0.082-0.038c-1.763 0.841-3.232 2.041-4.362 3.515l-0.021 0.028-13.967 18.985 78.643 66.499h36.168v-224.236h46.264v-32.768zM1024 202.24h-273.981v491.52h273.981v-491.52zM273.981 202.24h-273.981v491.52h273.981v-491.52z" />
<glyph unicode="&#xe934;" glyph-name="slider-2" d="M327.066 816.64v-737.28h356.168v737.28h-356.168zM593.51 318.28h-176.722v14.479c0.078 3.362 0.778 6.539 1.989 9.451l-0.064-0.173c1.401 3.463 3.4 6.415 5.894 8.864l0.004 0.004 78.234 78.111c6.574 6.554 12.288 12.984 17.531 18.985 4.607 5.288 8.904 11.129 12.701 17.311l0.324 0.568c3.127 5.167 5.869 11.13 7.916 17.407l0.173 0.615c1.742 5.762 2.744 12.384 2.744 19.239 0 0.004 0 0.008 0 0.012v-0.001c0.004 0.211 0.006 0.461 0.006 0.711 0 5.581-1.008 10.926-2.852 15.864l0.103-0.313c-1.722 4.656-4.334 8.625-7.654 11.873l-0.006 0.006c-3.249 3.12-7.185 5.551-11.556 7.041l-0.22 0.065c-4.425 1.56-9.527 2.462-14.84 2.462-0.226 0-0.451-0.002-0.676-0.005h0.034c-0.467 0.019-1.015 0.030-1.566 0.030-9.214 0-17.719-3.033-24.572-8.155l0.108 0.077c-6.793-5.379-11.825-12.713-14.263-21.148l-0.073-0.294c-0.906-3.916-2.998-7.248-5.872-9.686l-0.026-0.021c-2.579-1.802-5.78-2.88-9.233-2.88-0.225 0-0.448 0.005-0.67 0.014l0.032-0.001c-0.028 0-0.062 0-0.095 0-2.053 0-4.058 0.201-5.998 0.585l0.195-0.032-23.142 4.096c1.591 12.064 5.198 22.986 10.491 32.871l-0.251-0.513c4.96 9.144 11.386 16.851 19.051 23.094l0.139 0.109c7.438 6.079 16.194 10.885 25.739 13.917l0.557 0.153c9.28 2.952 19.954 4.654 31.025 4.654 0.361 0 0.721-0.002 1.081-0.005h-0.055c0.434 0.007 0.945 0.011 1.458 0.011 11.153 0 21.861-1.902 31.819-5.398l-0.673 0.206c9.748-3.463 18.136-8.527 25.279-14.949l-0.068 0.060c6.901-6.326 12.442-14.013 16.216-22.649l0.168-0.432c3.731-8.62 5.901-18.658 5.901-29.202 0-0.246-0.001-0.491-0.004-0.736v0.037c0.001-0.139 0.001-0.304 0.001-0.469 0-9.264-1.553-18.166-4.412-26.459l0.171 0.57c-3.111-8.822-6.908-16.445-11.5-23.502l0.257 0.421c-5.203-7.994-10.596-14.949-16.501-21.43l0.117 0.131q-9.462-10.24-19.722-20.89l-58.081-59.126c4.407 1.349 10.038 2.679 15.778 3.693l0.933 0.137c4.644 0.795 10.045 1.291 15.546 1.371l0.080 0.001h66.171c0.235 0.013 0.51 0.020 0.787 0.020 4.045 0 7.725-1.566 10.465-4.124l-0.009 0.008c2.623-2.465 4.256-5.956 4.256-9.829 0-0.238-0.006-0.475-0.018-0.711l0.001 0.033v-26.214zM1024 202.24h-273.981v491.52h273.981v-491.52zM273.981 202.24h-273.981v491.52h273.981v-491.52z" />
<glyph unicode="&#xe935;" glyph-name="slider-3" d="M327.066 816.64v-737.28h356.168v737.28h-356.168zM588.861 361.841c-4.804-9.741-11.251-17.962-19.064-24.631l-0.106-0.088c-7.942-6.528-17.288-11.7-27.48-14.988l-0.598-0.167c-9.971-3.286-21.448-5.182-33.367-5.182-0.121 0-0.241 0-0.361 0.001h0.019c-0.604-0.011-1.316-0.018-2.029-0.018-11.382 0-22.378 1.652-32.762 4.731l0.814-0.207c-9.626 2.892-17.983 7.38-25.206 13.216l0.139-0.108c-7.229 5.911-13.259 12.965-17.888 20.934l-0.196 0.365c-4.998 8.336-9.368 17.964-12.61 28.096l-0.272 0.986 19.456 8.049c2.993 1.288 6.476 2.040 10.135 2.048h0.003c0.025 0 0.055 0 0.084 0 2.954 0 5.744-0.704 8.212-1.953l-0.104 0.048c2.45-1.276 4.386-3.251 5.578-5.66l0.033-0.074c2.191-4.096 4.526-8.192 7.127-12.145 2.528-4.177 5.575-7.739 9.113-10.742l0.062-0.051c3.543-3.137 7.672-5.715 12.188-7.537l0.285-0.102c4.796-1.824 10.341-2.881 16.133-2.881 0.398 0 0.795 0.005 1.19 0.015l-0.059-0.001c0.252-0.004 0.549-0.007 0.846-0.007 6.743 0 13.181 1.303 19.077 3.672l-0.344-0.122c5.43 2.388 10.063 5.611 13.963 9.56l0.005 0.005c3.474 3.649 6.297 7.956 8.256 12.71l0.1 0.274c1.678 4.292 2.679 9.259 2.744 14.452v0.027c0.001 0.115 0.001 0.251 0.001 0.387 0 5.822-0.702 11.479-2.027 16.892l0.1-0.485c-1.428 5.176-4.301 9.556-8.154 12.81l-0.038 0.031c-5.042 3.938-11.066 6.875-17.632 8.398l-0.308 0.060c-8.565 1.931-18.402 3.038-28.498 3.038-0.962 0-1.921-0.010-2.877-0.030l0.143 0.002v31.375c0.694-0.016 1.511-0.026 2.33-0.026 8.701 0 17.155 1.055 25.242 3.043l-0.723-0.15c6.486 1.471 12.183 4.173 17.092 7.865l-0.114-0.082c4.023 3.129 7.101 7.296 8.849 12.101l0.060 0.187c1.561 4.447 2.462 9.574 2.462 14.912 0 0.23-0.002 0.459-0.005 0.687v-0.035c0.066 0.813 0.104 1.76 0.104 2.716 0 9.676-3.852 18.452-10.106 24.878l0.008-0.008c-6.629 5.807-15.368 9.349-24.935 9.349-0.817 0-1.629-0.026-2.433-0.077l0.11 0.006c-0.424 0.016-0.921 0.025-1.421 0.025-9.282 0-17.842-3.087-24.711-8.291l0.102 0.074c-6.675-5.38-11.674-12.592-14.254-20.87l-0.082-0.306c-0.93-3.902-3.017-7.22-5.874-9.666l-0.025-0.021c-2.505-1.803-5.636-2.883-9.018-2.883-0.25 0-0.498 0.006-0.745 0.018l0.035-0.001c-2.13 0.007-4.219 0.156-6.265 0.437l0.244-0.027-23.142 4.096c1.591 12.064 5.198 22.986 10.491 32.871l-0.251-0.513c4.953 9.15 11.373 16.864 19.032 23.116l0.137 0.109c7.439 6.078 16.194 10.883 25.739 13.917l0.557 0.153c9.35 3.028 20.107 4.774 31.272 4.774 0.224 0 0.447-0.001 0.67-0.002h-0.034c0.288 0.003 0.628 0.005 0.969 0.005 11.17 0 21.908-1.853 31.921-5.269l-0.696 0.206c9.475-3.281 17.647-8.068 24.669-14.149l-0.093 0.079c12.873-11.238 20.961-27.678 20.961-46.006 0-0.386-0.004-0.771-0.011-1.156l0.001 0.058c0.012-0.493 0.019-1.073 0.019-1.656 0-7.090-1.009-13.944-2.892-20.426l0.128 0.517c-1.77-6.204-4.492-11.615-8.040-16.373l0.094 0.132c-3.56-4.665-7.828-8.575-12.684-11.639l-0.198-0.117c-4.919-3.091-10.582-5.776-16.564-7.765l-0.558-0.161c13.947-3.891 25.728-11.698 34.44-22.152l0.089-0.11c7.128-9.772 11.405-22.020 11.405-35.267 0-0.756-0.014-1.509-0.042-2.258l0.003 0.108c0.011-0.481 0.017-1.049 0.017-1.617 0-11.745-2.642-22.874-7.363-32.824l0.199 0.465zM1024 202.24h-273.981v491.52h273.981v-491.52zM273.981 202.24h-273.981v491.52h273.981v-491.52z" />
<glyph unicode="&#xe936;" glyph-name="slider-4" d="M452.813 416.317l79.872 109.937c-0.553-4.792-0.963-9.298-1.229-13.66s-0.266-8.458-0.266-12.288v-83.968h-78.377zM327.066 816.64v-737.28h356.168v737.28h-356.168zM602.010 390.861c0.004-0.098 0.006-0.214 0.006-0.33 0-4.66-3.778-8.438-8.438-8.438-0.218 0-0.435 0.008-0.649 0.025l0.028-0.002h-23.286v-62.689h-38.502v62.751h-108.544c-0.049-0.001-0.108-0.001-0.166-0.001-2.907 0-5.574 1.029-7.657 2.742l0.021-0.017c-2.146 1.74-3.701 4.134-4.365 6.877l-0.018 0.087-4.383 22.118 121.917 162.509h41.779v-160.174h32.338v-25.395zM1024 202.24h-273.981v491.52h273.981v-491.52zM273.981 202.24h-273.981v491.52h273.981v-491.52z" />
<glyph unicode="&#xe937;" glyph-name="slider-5" d="M327.066 816.64v-737.28h356.168v737.28h-356.168zM579.584 372.224c-4.771-11.327-11.592-20.933-20.076-28.765l-0.056-0.051c-8.454-7.922-18.527-14.234-29.656-18.375l-0.613-0.2c-11.080-4.154-23.885-6.558-37.251-6.558-0.339 0-0.678 0.002-1.017 0.005h0.052c-0.155-0.001-0.338-0.001-0.521-0.001-7.973 0-15.737 0.896-23.197 2.592l0.698-0.134c-7.827 1.743-14.666 4.046-21.163 6.972l0.683-0.275c-6.729 2.889-12.49 6.089-17.88 9.791l0.349-0.226c-5.451 3.534-10.199 7.312-14.552 11.499l0.031-0.030 13.558 18.575c2.319 3.634 6.33 6.009 10.895 6.009 0.159 0 0.316-0.003 0.474-0.009l-0.023 0.001c3.317-0.104 6.38-1.105 8.98-2.766l-0.071 0.042c3.154-1.905 6.574-3.953 10.691-6.287 3.951-2.24 8.565-4.317 13.378-5.968l0.59-0.176c5.438-1.826 11.701-2.88 18.21-2.88 0.438 0 0.875 0.005 1.311 0.014l-0.065-0.001c0.366-0.009 0.798-0.014 1.231-0.014 7.255 0 14.181 1.411 20.518 3.975l-0.367-0.131c6.113 2.542 11.284 6.248 15.449 10.877l0.034 0.038c3.996 4.728 7.139 10.324 9.1 16.449l0.095 0.344c2.002 6.141 3.156 13.207 3.156 20.543 0 0.172-0.001 0.344-0.002 0.516v-0.026c0.041 0.708 0.065 1.537 0.065 2.371 0 11.789-4.714 22.477-12.36 30.282l0.007-0.007c-8.61 7.463-19.924 12.010-32.3 12.010-1.268 0-2.524-0.048-3.767-0.141l0.166 0.010c-13.5-0.093-26.39-2.586-38.303-7.072l0.763 0.252-27.525 7.926 21.504 124.539h127.119v-18.575c0.008-0.213 0.012-0.463 0.012-0.714 0-5.694-2.305-10.85-6.034-14.585v0c-4.647-3.747-10.624-6.015-17.13-6.015-0.963 0-1.915 0.050-2.853 0.147l0.117-0.010h-70.758l-9.318-53.535c9.548 2.075 20.553 3.316 31.829 3.42l0.079 0.001c0.665 0.017 1.448 0.026 2.234 0.026 12.039 0 23.562-2.21 34.185-6.247l-0.661 0.221c10.101-3.877 18.727-9.541 25.889-16.673l-0.003 0.003c6.778-6.913 12.138-15.243 15.591-24.503l0.158-0.483c3.387-8.914 5.348-19.221 5.348-29.986 0-0.258-0.001-0.516-0.003-0.774v0.040c0.009-0.491 0.015-1.071 0.015-1.651 0-12.855-2.587-25.106-7.269-36.26l0.23 0.618zM1024 202.24h-273.981v491.52h273.981v-491.52zM273.981 202.24h-273.981v491.52h273.981v-491.52z" />
<glyph unicode="&#xe938;" glyph-name="cookie-consent" d="M938.496 959.795h-852.992c-47.086-0.058-85.241-38.213-85.299-85.294v-852.997c0.058-47.086 38.213-85.241 85.294-85.299h852.997c47.086 0.058 85.241 38.213 85.299 85.294v852.997c-0.058 47.086-38.213 85.241-85.294 85.299h-0.005zM85.504 925.676h852.992c28.277 0 51.2-22.923 51.2-51.2v0-51.2h-955.372v51.2c0 28.27 22.911 51.188 51.178 51.2h0.001zM938.496-29.676h-852.992c-28.277 0-51.2 22.923-51.2 51.2v0 767.672h955.372v-767.693c-0.012-28.261-22.919-51.168-51.178-51.18h-0.001zM102.564 857.436h17.060c9.422 0 17.060 7.638 17.060 17.060s-7.638 17.060-17.060 17.060v0h-17.060c-9.422 0-17.060-7.638-17.060-17.060s7.638-17.060 17.060-17.060v0zM187.863 857.436h17.060c9.422 0 17.060 7.638 17.060 17.060s-7.638 17.060-17.060 17.060v0h-17.060c-9.422 0-17.060-7.638-17.060-17.060s7.638-17.060 17.060-17.060v0zM273.162 857.436h17.060c9.422 0 17.060 7.638 17.060 17.060s-7.638 17.060-17.060 17.060v0h-17.060c-9.422 0-17.060-7.638-17.060-17.060s7.638-17.060 17.060-17.060v0zM358.461 857.436h562.975c9.422 0 17.060 7.638 17.060 17.060s-7.638 17.060-17.060 17.060v0h-563.036c-9.422 0-17.060-7.638-17.060-17.060s7.638-17.060 17.060-17.060v0zM512 209.162c103.073 0.013 192.804 57.121 239.293 141.418l0.712 1.409c0.177 0.369 0.358 0.823 0.509 1.29l0.023 0.082c0.123 0.266 0.205 0.532 0.307 0.799 0.732 1.817 1.179 3.921 1.228 6.124v0.020c-0.033 2.154-0.467 4.197-1.228 6.072l0.040-0.113c-0.143 0.369-0.266 0.737-0.41 1.065-0.851 1.848-1.944 3.432-3.261 4.797l0.005-0.005-0.512 0.451c-0.622 0.656-1.291 1.254-2.007 1.793l-0.041 0.030c-18.115 12.453-29.841 33.062-29.841 56.41 0 32.211 22.318 59.21 52.334 66.376l0.464 0.094q2.724 1.188 5.407 2.417c0.926 0.634 1.736 1.308 2.479 2.048v0c0.809 0.714 1.535 1.484 2.183 2.317l0.028 0.038c0.545 0.829 1.041 1.78 1.437 2.781l0.037 0.107c0.442 0.853 0.839 1.852 1.138 2.893l0.029 0.118c0.172 0.913 0.271 1.962 0.271 3.035 0 0.135-0.002 0.27-0.005 0.405v-0.020c0.116 0.756 0.183 1.629 0.184 2.518v0.001c-0.065 0.605-0.159 1.142-0.284 1.666l0.018-0.089v0.307c-5.266 40.184-18.694 76.388-38.584 108.13l0.656-1.122-0.164 0.184c-0.003 0.106-0.049 0.2-0.123 0.266v0c-0.74 0.938-1.561 1.758-2.467 2.475l-0.031 0.024c-0.628 0.75-1.298 1.42-2.023 2.028l-0.025 0.020c-0.982 0.6-2.114 1.121-3.308 1.505l-0.113 0.031c-0.723 0.393-1.571 0.754-2.453 1.036l-0.107 0.029q-3.256 0.205-6.513 0.164c-1.229-0.314-2.298-0.72-3.307-1.23l0.092 0.042c-1.112-0.283-2.080-0.648-2.994-1.104l0.086 0.039-0.266-0.061h-0.246c-10.647-7.176-23.765-11.455-37.881-11.455-37.755 0-68.362 30.607-68.362 68.362 0 9.782 2.055 19.085 5.756 27.499l-0.172-0.438v0.164l0.164 0.246c0.26 0.907 0.449 1.968 0.529 3.060l0.003 0.053c0.27 0.931 0.473 2.026 0.569 3.151l0.004 0.064c-0.116 1.195-0.333 2.288-0.646 3.339l0.032-0.123c-0.174 1.194-0.424 2.251-0.756 3.272l0.039-0.139c-0.575 1.083-1.194 2.015-1.891 2.881l0.027-0.035c-0.503 0.952-1.040 1.77-1.644 2.532l0.026-0.034c-2.452 1.644-4.199 2.877-5.926 4.138l0.56-0.39h-0.307l-0.246 0.164c-29.286 11.705-63.231 18.493-98.761 18.493-150.75 0-272.957-122.207-272.957-272.957s122.207-272.957 272.957-272.957c0.082 0 0.163 0 0.245 0h-0.013zM512 720.957c25.365-0.048 49.775-4.067 72.664-11.467l-1.68 0.47c-1.737-7.046-2.733-15.134-2.733-23.456 0-56.339 45.672-102.011 102.011-102.011 14.768 0 28.803 3.138 41.475 8.784l-0.649-0.258c10.54-19.458 18.656-42.033 23.141-65.89l0.226-1.449c-37.751-15.585-63.834-52.108-63.834-94.722 0-29.416 12.428-55.929 32.321-74.575l0.056-0.052c-42.824-68.303-117.701-113.050-203.029-113.050-131.906 0-238.838 106.931-238.838 238.838s106.931 238.838 238.838 238.838c0.011 0 0.022 0 0.033 0h-0.002zM494.94 533.299c37.688 0 68.239 30.552 68.239 68.239s-30.552 68.239-68.239 68.239c-37.666 0-68.204-30.517-68.239-68.175v-0.003c0-0.018 0-0.040 0-0.061 0-37.688 30.552-68.239 68.239-68.239v0zM494.94 635.699c18.835-0.012 34.099-15.283 34.099-34.12 0-18.844-15.276-34.12-34.12-34.12s-34.12 15.276-34.12 34.12c0 0.007 0 0.014 0 0.022v-0.001c0.035 18.817 15.297 34.058 34.12 34.058 0.007 0 0.014 0 0.022 0h-0.001zM409.6 499.2c0 28.277-22.923 51.2-51.2 51.2s-51.2-22.923-51.2-51.2c0-28.277 22.923-51.2 51.2-51.2v0c28.277 0 51.2 22.923 51.2 51.2v0zM341.361 499.2c0 9.422 7.638 17.060 17.060 17.060s17.060-7.638 17.060-17.060c0-9.422-7.638-17.060-17.060-17.060v0c-9.404 0.023-17.019 7.652-17.019 17.060 0 0 0 0 0 0v0zM546.161 345.6c0-28.277 22.923-51.2 51.2-51.2s51.2 22.923 51.2 51.2c0 28.277-22.923 51.2-51.2 51.2v0c-0.012 0-0.027 0-0.041 0-28.277 0-51.2-22.923-51.2-51.2 0 0 0 0 0 0v0zM597.361 362.66c9.422 0 17.060-7.638 17.060-17.060s-7.638-17.060-17.060-17.060c-9.422 0-17.060 7.638-17.060 17.060v0c0 0.012 0 0.027 0 0.041 0 9.4 7.603 17.025 16.995 17.060h0.003zM431.718 333.496c0.764-0.693 1.591-1.364 2.455-1.99l0.085-0.058c0.89-0.605 1.912-1.124 2.999-1.507l0.094-0.029c0.889-0.464 1.919-0.82 3.006-1.014l0.066-0.010c1.002-0.183 2.18-0.308 3.38-0.347l0.040-0.001c0.018 0 0.040 0 0.062 0 9.331 0 16.896 7.565 16.896 16.896 0 0.058 0 0.115-0.001 0.173v-0.009c-0.041 1.239-0.174 2.416-0.391 3.563l0.023-0.143c-0.186 1.15-0.537 2.183-1.030 3.129l0.027-0.057c-0.416 1.173-0.935 2.188-1.567 3.12l0.031-0.048c-0.677 0.956-1.35 1.791-2.068 2.582l0.020-0.022c-3.192 3.037-7.52 4.905-12.285 4.905-1.145 0-2.265-0.108-3.35-0.314l0.111 0.018c-1.153-0.204-2.183-0.56-3.132-1.052l0.060 0.028c-1.18-0.411-2.202-0.93-3.139-1.566l0.047 0.030-2.54-2.048-2.048-2.56c-0.61-0.884-1.129-1.9-1.508-2.982l-0.028-0.090c-0.464-0.889-0.82-1.919-1.014-3.006l-0.010-0.066c-0.179-0.998-0.304-2.176-0.347-3.375l-0.001-0.045c0.032-2.352 0.533-4.579 1.415-6.602l-0.043 0.11c0.893-2.16 2.117-4.008 3.63-5.576l-0.005 0.005zM621.916 467.927c0.89-0.605 1.912-1.124 2.999-1.507l0.094-0.029c0.888-0.463 1.919-0.819 3.006-1.014l0.066-0.010c1.007-0.188 2.186-0.313 3.387-0.347l0.033-0.001c4.704 0.075 8.956 1.95 12.111 4.963l-0.007-0.007c1.537 1.558 2.756 3.436 3.548 5.523l0.036 0.109c0.861 1.908 1.363 4.136 1.363 6.482s-0.502 4.574-1.404 6.584l0.041-0.102c-0.874 2.182-2.086 4.051-3.591 5.64l0.007-0.008c-1.603 1.453-3.465 2.658-5.502 3.534l-0.13 0.050c-1.949 0.842-4.219 1.331-6.602 1.331-9.411 0-17.039-7.629-17.039-17.039 0-4.733 1.929-9.015 5.045-12.102l0.001-0.001c0.746-0.677 1.553-1.336 2.395-1.95l0.083-0.057zM518.492 480.768c-1.916 0.809-4.144 1.279-6.482 1.279s-4.566-0.47-6.594-1.321l0.112 0.042c-2.182-0.874-4.051-2.086-5.64-3.591l0.008 0.007c-3.059-3.119-4.947-7.396-4.947-12.114s1.888-8.995 4.95-12.117l-0.003 0.003c1.581-1.497 3.45-2.709 5.514-3.542l0.118-0.042c1.908-0.862 4.136-1.365 6.482-1.365s4.574 0.502 6.584 1.405l-0.102-0.041c2.167 0.926 4.029 2.131 5.649 3.599l-0.017-0.015c3.18 3.064 5.155 7.359 5.155 12.115 0 7.119-4.424 13.204-10.673 15.657l-0.114 0.039zM648.479 175.063h-272.957c-47.109 0-85.299-38.19-85.299-85.299s38.19-85.299 85.299-85.299h272.957c46.537 0.744 83.978 38.644 83.978 85.289s-37.44 84.545-83.908 85.288l-0.070 0.001zM648.479 38.584h-272.957c-28.277 0-51.2 22.923-51.2 51.2s22.923 51.2 51.2 51.2v0h272.957c28.283 0 51.21-22.928 51.21-51.21s-22.928-51.21-51.21-51.21v0zM864.379 102.687l24.146 24.146c3.096 3.089 5.011 7.359 5.011 12.077 0 7.493-4.83 13.857-11.547 16.149l-0.12 0.036-108.544 36.188c-1.606 0.552-3.457 0.871-5.382 0.871-9.422 0-17.060-7.638-17.060-17.060 0-1.931 0.321-3.787 0.912-5.517l-0.036 0.12 36.188-108.544c2.328-6.837 8.692-11.667 16.185-11.667 4.708 0 8.97 1.907 12.057 4.991v0l24.125 24.125 60.314-60.314c3.077-3.028 7.302-4.898 11.963-4.898 9.422 0 17.060 7.638 17.060 17.060 0 4.662-1.87 8.886-4.9 11.966l0.002-0.002zM828.191 114.749l-16.65-16.671-16.691 50.012 50.012-16.671zM631.419 106.844h-238.838c-9.422 0-17.060-7.638-17.060-17.060s7.638-17.060 17.060-17.060h238.838c0.25-0.013 0.542-0.020 0.836-0.020 9.422 0 17.060 7.638 17.060 17.060s-7.638 17.060-17.060 17.060c-0.294 0-0.586-0.007-0.876-0.022l0.041 0.002z" />
<glyph unicode="&#xe939;" glyph-name="facebook-chat-settings" d="M1023.652-63.652l-262.144 65.536c-71.961-41.008-158.118-65.183-249.922-65.183-282.611 0-511.713 229.102-511.713 511.713s229.102 511.713 511.713 511.713c282.611 0 511.713-229.102 511.713-511.713 0-91.804-24.175-177.961-66.506-252.452l1.323 2.53zM810.537 748.216c-76.651 76.821-182.634 124.347-299.718 124.347-233.828 0-423.383-189.555-423.383-423.383s189.555-423.383 423.383-423.383c96.268 0 185.031 32.129 256.152 86.25l-1.039-0.759 124.232-41.411-41.411 124.17c53.404 70.070 85.561 158.841 85.561 255.122 0 116.768-47.298 222.489-123.78 299.050l0.004-0.004zM734.413 381.317c-36.862 0-66.744 29.882-66.744 66.744s29.882 66.744 66.744 66.744c36.862 0 66.744-29.882 66.744-66.744 0-0.022 0-0.043 0-0.065v0.003c-0.035-36.835-29.904-66.683-66.744-66.683v0zM512 381.317c-0.018 0-0.040 0-0.061 0-36.862 0-66.744 29.882-66.744 66.744s29.882 66.744 66.744 66.744c36.862 0 66.744-29.882 66.744-66.744 0-0.022 0-0.043 0-0.065v0.003c-0.035-36.814-29.869-66.648-66.68-66.683h-0.003zM289.505 381.317c-0.018 0-0.040 0-0.061 0-36.862 0-66.744 29.882-66.744 66.744s29.882 66.744 66.744 66.744c36.862 0 66.744-29.882 66.744-66.744 0-0.022 0-0.043 0-0.065v0.003c-0.035-36.835-29.904-66.683-66.744-66.683v0z" />
<glyph unicode="&#xe93a;" glyph-name="integration" d="M606.659 851.599l-45.752 40.346c-3.935 3.588-9.193 5.786-14.963 5.786-6.773 0-12.839-3.028-16.919-7.803l-0.026-0.031-34.058-37.253c-28.597 18-62.472 30.445-98.811 34.941l-1.193 0.12-2.048 50.975c-0.58 11.91-10.378 21.347-22.38 21.347-0.391 0-0.779-0.010-1.164-0.030l0.054 0.002-60.641-3.195c-11.9-0.593-21.324-10.385-21.324-22.379 0-0.369 0.009-0.737 0.027-1.102l-0.002 0.051 2.048-50.975c-36.662-9.034-68.739-24.828-96.366-46.115l0.601 0.445-37.13 33.976c-3.937 3.583-9.193 5.777-14.962 5.777-6.772 0-12.838-3.024-16.921-7.795l-0.025-0.030-40.448-45.732c-3.597-3.926-5.801-9.18-5.801-14.948 0-6.768 3.035-12.828 7.817-16.893l0.032-0.026 37.315-33.976c-18.021-28.534-30.48-62.347-34.982-98.629l-0.12-1.191-51.077-2.048c-11.891-0.603-21.304-10.391-21.304-22.378 0-0.377 0.009-0.752 0.028-1.124l-0.002 0.052 3.195-60.539c0.625-11.872 10.404-21.262 22.376-21.262 0.363 0 0.724 0.009 1.083 0.026l51.026 2.046c9.060-36.602 24.88-68.618 46.191-96.17l-0.439 0.59-34.058-37.13c-3.597-3.926-5.801-9.18-5.801-14.948 0-6.768 3.035-12.828 7.817-16.893l0.032-0.026 45.752-40.366c3.938-3.589 9.199-5.788 14.973-5.788 6.777 0 12.847 3.028 16.93 7.805l0.026 0.031 34.038 37.171c28.6-17.985 62.474-30.422 98.809-34.921l1.195-0.121 2.048-50.975c0.625-11.872 10.404-21.262 22.376-21.262 0.363 0 0.724 0.009 1.083 0.026l-0.051-0.002 60.641 3.195c11.888 0.594 21.301 10.377 21.301 22.358 0 0.355-0.008 0.708-0.025 1.059l0.002-0.050-2.048 50.975c36.661 9.037 68.739 24.83 96.366 46.116l-0.601-0.445 37.233-33.976c3.938-3.589 9.199-5.788 14.973-5.788 6.777 0 12.847 3.028 16.93 7.805l0.026 0.031 40.428 45.67c3.597 3.926 5.801 9.18 5.801 14.948 0 6.768-3.035 12.828-7.817 16.893l-0.032 0.026-37.233 33.976c18.018 28.535 30.477 62.348 34.982 98.628l0.121 1.191 51.077 2.048c11.888 0.594 21.301 10.377 21.301 22.358 0 0.355-0.008 0.708-0.025 1.059l0.002-0.050-3.195 60.539c-0.625 11.872-10.404 21.262-22.376 21.262-0.363 0-0.724-0.009-1.083-0.026l-51.026-2.046c-9.061 36.602-24.881 68.617-46.191 96.17l0.439-0.59 34.038 37.171c3.142 4.055 5.036 9.214 5.036 14.816 0 6.726-2.731 12.813-7.145 17.215l-0.001 0.001zM447.058 537.252c-22.536-24.852-54.948-40.396-90.99-40.396-67.752 0-122.675 54.924-122.675 122.675s54.924 122.675 122.675 122.675c31.8 0 60.774-12.1 82.569-31.946l-0.098 0.088c24.691-22.555 40.121-54.892 40.121-90.831 0-31.69-11.996-60.579-31.696-82.372l0.095 0.107zM713.052 46.592l28.672-11.674c1.647-0.786 3.579-1.246 5.618-1.246 5.685 0 10.536 3.569 12.435 8.588l0.030 0.091 14.889 35.041c0.789 1.646 1.25 3.578 1.25 5.617 0 5.686-3.582 10.536-8.613 12.416l-0.091 0.030-28.672 11.674c2.030 9.898 3.193 21.274 3.193 32.922s-1.162 23.024-3.377 34.019l0.184-1.097 28.672 11.674c5.122 1.91 8.704 6.76 8.704 12.446 0 2.039-0.461 3.971-1.284 5.697l0.034-0.080-14.889 35.062c-1.93 5.111-6.781 8.68-12.466 8.68-2.039 0-3.971-0.459-5.699-1.28l0.081 0.034-28.672-11.674c-12.452 18.731-28.059 34.312-46.213 46.359l-0.604 0.377 11.715 28.672c0.784 1.641 1.241 3.567 1.241 5.6 0 5.683-3.578 10.531-8.605 12.413l-0.091 0.030-35.103 14.868c-1.647 0.786-3.579 1.246-5.618 1.246-5.685 0-10.536-3.569-12.435-8.588l-0.030-0.091-11.715-28.672c-9.917 2.026-21.314 3.186-32.983 3.186s-23.067-1.16-34.085-3.371l1.101 0.184-11.694 28.672c-1.93 5.111-6.781 8.68-12.466 8.68-2.039 0-3.971-0.459-5.699-1.28l0.081 0.034-35.123-14.868c-5.118-1.912-8.696-6.76-8.696-12.443 0-2.033 0.458-3.958 1.276-5.68l-0.034 0.080 11.715-28.672c-18.775-12.42-34.395-28.001-46.484-46.138l-0.375-0.597-28.672 11.674c-1.649 0.791-3.585 1.253-5.629 1.253-5.684 0-10.533-3.573-12.424-8.596l-0.030-0.091-14.889-35.041c-0.789-1.646-1.25-3.578-1.25-5.617 0-5.686 3.582-10.536 8.613-12.416l0.091-0.030 28.672-11.674c-2.032-9.898-3.195-21.274-3.195-32.922s1.163-23.024 3.38-34.018l-0.185 1.096-28.672-11.674c-5.122-1.91-8.704-6.76-8.704-12.446 0-2.039 0.461-3.971 1.284-5.697l14.855-34.961c1.93-5.111 6.781-8.68 12.466-8.68 2.039 0 3.971 0.459 5.699 1.28l-0.081-0.034 28.672 11.674c12.453-18.731 28.059-34.311 46.214-46.359l0.604-0.377-12.759-29.737c-0.789-1.646-1.25-3.578-1.25-5.617 0-5.686 3.582-10.536 8.613-12.416l0.091-0.030 35.103-14.868c1.647-0.786 3.579-1.246 5.618-1.246 5.685 0 10.536 3.569 12.435 8.588l0.030 0.091 11.715 28.672c9.917-2.026 21.314-3.186 32.983-3.186s23.067 1.16 34.085 3.371l-1.101-0.184 11.694-28.672c1.93-5.111 6.781-8.68 12.466-8.68 2.039 0 3.971 0.459 5.699 1.28l-0.081-0.034 35.103 14.868c5.122 1.91 8.704 6.76 8.704 12.446 0 2.039-0.461 3.971-1.284 5.697l0.034-0.080-11.715 28.672c19.136 12.779 35.094 28.692 47.537 47.17l0.387 0.609zM642.826 111.37c-11.765-28.066-39.012-47.422-70.781-47.422-42.268 0-76.534 34.265-76.534 76.534s34.265 76.534 76.534 76.534c10.567 0 20.634-2.142 29.791-6.015l-0.502 0.189c27.985-11.749 47.281-38.928 47.281-70.613 0-10.522-2.128-20.546-5.976-29.667l0.188 0.502zM683.254 431.022c0 0 0 0 0 0-5.874 0-10.638-4.756-10.65-10.628v-29.738c0.012-5.873 4.775-10.629 10.65-10.629 0 0 0 0 0 0h24.474c3.364-18.179 10.445-34.279 20.452-48.127l-0.238 0.347-18.084-16.998c-1.978-2.066-3.195-4.874-3.195-7.967s1.217-5.9 3.199-7.971l-0.004 0.004 21.279-21.176c2.074-1.97 4.884-3.181 7.977-3.181s5.903 1.212 7.982 3.186l-0.005-0.005 18.084 16.998c13.667-9.3 29.718-16.302 46.992-20.012l0.891-0.16v-24.433c0.023-5.864 4.782-10.609 10.65-10.609 0 0 0 0 0 0h29.798c0 0 0 0 0 0 5.867 0 10.626 4.745 10.65 10.606v24.414c18.212 3.347 34.348 10.416 48.234 20.414l-0.352-0.241 17.019-18.043c2.072-1.974 4.882-3.189 7.977-3.189s5.905 1.215 7.982 3.193l-0.005-0.004 21.279 21.238c1.978 2.066 3.195 4.874 3.195 7.967s-1.217 5.9-3.199 7.971l0.004-0.004-18.063 17.019c9.313 13.634 16.327 29.65 20.053 46.89l0.161 0.89h24.433c0 0 0 0 0 0 5.86 0 10.615 4.733 10.649 10.585v29.699c-0.023 5.864-4.782 10.609-10.65 10.609 0 0 0 0 0 0h-24.474c-3.359 18.179-10.442 34.28-20.452 48.126l0.238-0.346 18.084 16.998c1.978 2.066 3.195 4.874 3.195 7.967s-1.217 5.9-3.199 7.971l0.004-0.004-21.279 21.32c-2.074 1.97-4.884 3.181-7.977 3.181s-5.903-1.212-7.982-3.186l0.005 0.005-18.084-16.998c-13.666 9.304-29.718 16.306-46.993 20.013l-0.889 0.16v24.412c-0.012 5.873-4.775 10.629-10.65 10.629 0 0 0 0 0 0h-29.778c-5.866-0.012-10.617-4.764-10.629-10.628v-24.434c-18.212-3.347-34.348-10.416-48.234-20.414l0.352 0.241-17.019 18.063c-2.074 1.97-4.884 3.181-7.977 3.181s-5.903-1.212-7.982-3.186l0.005 0.005-21.279-21.238c-1.973-2.068-3.187-4.876-3.187-7.967s1.214-5.898 3.191-7.971l-0.004 0.005 17.019-18.063c-9.317-13.633-16.331-29.65-20.053-46.891l-0.161-0.888zM796.037 446.956c10.885 10.907 25.935 17.654 42.56 17.654 33.208 0 60.129-26.921 60.129-60.129s-26.921-60.129-60.129-60.129c-16.625 0-31.675 6.747-42.559 17.653l-0.001 0.001c-11.324 10.664-18.375 25.757-18.375 42.496s7.051 31.832 18.346 42.468l0.030 0.028z" />
</font>
</defs>
</svg>
